<svg xmlns="http://www.w3.org/2000/svg" viewBox="0 0 50 80"><defs><style>.cls-1{fill:none;}.cls-2{fill:#11b7da;}</style></defs><g id="レイヤー_2" data-name="レイヤー 2"><g id="レイアウト"><rect class="cls-1" width="50" height="80"/><path class="cls-2" d="M8.06,80V69.3L28.57,30.64a14.31,14.31,0,0,0,1.78-5.07c.15-1.45.22-3.25.22-5.4,0-1,0-2-.05-3.07a7.55,7.55,0,0,0-.62-2.84,5.35,5.35,0,0,0-1.67-2.06A5.3,5.3,0,0,0,25,11.37a5.65,5.65,0,0,0-4.07,1.44,5.64,5.64,0,0,0-1.5,4.24v6.46H8.06V17.27A16.78,16.78,0,0,1,9.4,10.59a17.24,17.24,0,0,1,3.68-5.46,16.67,16.67,0,0,1,5.35-3.74A16.15,16.15,0,0,1,25.11,0a16.6,16.6,0,0,1,7.63,1.62A15.19,15.19,0,0,1,38,6a19.29,19.29,0,0,1,3,6.35,29.46,29.46,0,0,1,.95,7.57c0,1.94,0,3.55-.12,4.85a28.86,28.86,0,0,1-.44,3.73,16.87,16.87,0,0,1-1.11,3.57c-.53,1.19-1.23,2.64-2.12,4.35L21.43,68.63H41.94V80Z"/></g></g></svg>