<svg xmlns="http://www.w3.org/2000/svg" viewBox="0 0 50 80"><defs><style>.cls-1{fill:none;}.cls-2{fill:#11b7da;}</style></defs><g id="レイヤー_2" data-name="レイヤー 2"><g id="レイアウト"><rect class="cls-1" width="50" height="80"/><path class="cls-2" d="M21.57,33.81q5.09,0,7-1.21T30.52,27V16.8a5.47,5.47,0,0,0-1.49-4,5.34,5.34,0,0,0-4-1.55,4.75,4.75,0,0,0-4.25,1.88,6.5,6.5,0,0,0-1.27,3.65v6.4H8.2V16.68a16.41,16.41,0,0,1,1.33-6.51,15.78,15.78,0,0,1,3.65-5.31,18,18,0,0,1,5.41-3.53A16.53,16.53,0,0,1,25.22,0,14.8,14.8,0,0,1,32.9,1.82a17.93,17.93,0,0,1,4.59,3.7,24.72,24.72,0,0,1,1.93,2.66,13,13,0,0,1,1.38,3.2,44.15,44.15,0,0,1,1,10.83q0,4.09-.17,6.63A13.92,13.92,0,0,1,40.8,33a8.3,8.3,0,0,1-2.15,3,25.66,25.66,0,0,1-3.82,2.65,21.83,21.83,0,0,1,4,3.1,9.09,9.09,0,0,1,2,3.31,17.09,17.09,0,0,1,.77,4.7c.08,1.8.12,4.11.12,6.91,0,2.57-.06,4.71-.17,6.4a32.78,32.78,0,0,1-.5,4.2,13,13,0,0,1-.88,3,18.69,18.69,0,0,1-1.44,2.54A17.91,17.91,0,0,1,33.45,78a15.93,15.93,0,0,1-8.56,2,20.21,20.21,0,0,1-5.64-.88,15.18,15.18,0,0,1-9.44-8.07A17.4,17.4,0,0,1,8.2,63.2V56.8H19.48v5.85A6.4,6.4,0,0,0,21,67a5.06,5.06,0,0,0,4,1.71A5.07,5.07,0,0,0,29,67a6.73,6.73,0,0,0,1.49-4.59V51.16q0-4.63-1.76-6.08A5,5,0,0,0,26.05,44a35.86,35.86,0,0,0-4.48-.22Z"/></g></g></svg>