<svg xmlns="http://www.w3.org/2000/svg" viewBox="0 0 60 60"><defs><style>.cls-1{fill:#11b7da;}.cls-2{fill:#fff;}</style></defs><g id="レイヤー_2" data-name="レイヤー 2"><g id="レイアウト"><rect class="cls-1" width="60" height="60"/><path class="cls-2" d="M32.44,17.05,28.08,28.29l.08.08a1.43,1.43,0,0,1,.58-.25,4.83,4.83,0,0,1,1-.09,3.68,3.68,0,0,1,1.87.49A3.8,3.8,0,0,1,33,29.76a4.48,4.48,0,0,1,.41.82,6,6,0,0,1,.26,1.09q.07.67.12,1.71c0,.69,0,1.56,0,2.62q0,1.3,0,2.16t-.12,1.41a5,5,0,0,1-.28,1,6.89,6.89,0,0,1-.43.86,5.15,5.15,0,0,1-2,1.92,5.93,5.93,0,0,1-2.84.68,5.62,5.62,0,0,1-2.82-.7,5.41,5.41,0,0,1-2-1.9,4.62,4.62,0,0,1-.47-.86,4.05,4.05,0,0,1-.24-1,8.46,8.46,0,0,1-.15-1.41c0-.57,0-1.29,0-2.16s0-1.51,0-2,.06-1,.11-1.41a6.15,6.15,0,0,1,.22-1c.1-.31.22-.64.34-1l5-13.46ZM30,33.33a1.82,1.82,0,0,0-.56-1.39,1.89,1.89,0,0,0-1.32-.53,1.85,1.85,0,0,0-1.31.53,1.79,1.79,0,0,0-.57,1.39v5a1.81,1.81,0,0,0,.57,1.39,1.84,1.84,0,0,0,1.31.52,1.88,1.88,0,0,0,1.32-.52A1.84,1.84,0,0,0,30,38.29Z"/></g></g></svg>