<svg xmlns="http://www.w3.org/2000/svg" viewBox="0 0 60 60"><defs><style>.cls-1{fill:#11b7da;}.cls-2{fill:#fff;}</style></defs><g id="レイヤー_2" data-name="レイヤー 2"><g id="レイアウト"><rect class="cls-1" width="60" height="60"/><path class="cls-2" d="M33.83,17.05v3.61H26.24v7.22A4.34,4.34,0,0,1,27.59,27a4.8,4.8,0,0,1,1.85-.35,4.35,4.35,0,0,1,3.17,1.18,4.71,4.71,0,0,1,1.22,3.55v6.92a5.69,5.69,0,0,1-1.72,4.21,5.43,5.43,0,0,1-1.83,1.14,6,6,0,0,1-4.32,0,5.29,5.29,0,0,1-1.82-1.14,5.55,5.55,0,0,1-1.26-1.81,5.87,5.87,0,0,1-.47-2.4V37.16h3.83v1a2,2,0,0,0,.55,1.52,1.91,1.91,0,0,0,1.41.54,1.69,1.69,0,0,0,1.33-.52A2.14,2.14,0,0,0,30,38.21V31.94a2,2,0,0,0-.51-1.36A1.68,1.68,0,0,0,28.2,30a1.86,1.86,0,0,0-.83.17,2,2,0,0,0-.56.39,1.55,1.55,0,0,0-.34.49l-.23.42H22.86V17.05Z"/></g></g></svg>