<svg xmlns="http://www.w3.org/2000/svg" viewBox="0 0 60 60"><defs><style>.cls-1{fill:#11b7da;}.cls-2{fill:#fff;}</style></defs><g id="レイヤー_2" data-name="レイヤー 2"><g id="レイアウト"><rect class="cls-1" width="60" height="60"/><path class="cls-2" d="M22.41,43.81V40.2l6.91-13a4.75,4.75,0,0,0,.6-1.71A15.45,15.45,0,0,0,30,23.63c0-.32,0-.67,0-1a2.52,2.52,0,0,0-.2-1,1.62,1.62,0,0,0-1.66-1,1.87,1.87,0,0,0-1.37.49,1.89,1.89,0,0,0-.51,1.43v2.18H22.41V22.65a5.74,5.74,0,0,1,1.69-4.09,5.51,5.51,0,0,1,1.8-1.26,5.42,5.42,0,0,1,2.26-.47,5.64,5.64,0,0,1,2.57.54,5.18,5.18,0,0,1,1.79,1.49,6.37,6.37,0,0,1,1,2.14,9.6,9.6,0,0,1,.32,2.56c0,.65,0,1.19,0,1.63a12.08,12.08,0,0,1-.15,1.26,6.17,6.17,0,0,1-.38,1.2c-.18.4-.41.89-.71,1.47L26.92,40h6.91v3.83Z"/></g></g></svg>