<svg xmlns="http://www.w3.org/2000/svg" viewBox="0 0 60 60"><defs><style>.cls-1{fill:#11b7da;}.cls-2{fill:#fff;}</style></defs><g id="レイヤー_2" data-name="レイヤー 2"><g id="レイアウト"><rect class="cls-1" width="60" height="60"/><path class="cls-2" d="M27,28.33a4.76,4.76,0,0,0,2.38-.42c.44-.27.66-.91.66-1.91V22.54a1.86,1.86,0,0,0-.51-1.35,1.81,1.81,0,0,0-1.37-.53,1.61,1.61,0,0,0-1.45.64,2.29,2.29,0,0,0-.43,1.24v2.18H22.41V22.5a5.56,5.56,0,0,1,.45-2.21,5.26,5.26,0,0,1,1.24-1.81,6.23,6.23,0,0,1,1.84-1.2,5.66,5.66,0,0,1,2.26-.45,5,5,0,0,1,2.61.62,5.84,5.84,0,0,1,1.56,1.26,8.59,8.59,0,0,1,.66.9,4.82,4.82,0,0,1,.47,1.09,15.33,15.33,0,0,1,.33,3.68c0,.93,0,1.68,0,2.26a4.89,4.89,0,0,1-.28,1.43,2.88,2.88,0,0,1-.74,1,7.82,7.82,0,0,1-1.29.9A8,8,0,0,1,32.84,31a3.22,3.22,0,0,1,.69,1.13,6.06,6.06,0,0,1,.27,1.6c0,.61,0,1.4,0,2.35s0,1.6,0,2.18a13.12,13.12,0,0,1-.17,1.43,5.09,5.09,0,0,1-.3,1,6.41,6.41,0,0,1-.49.86A6,6,0,0,1,31,43.34a5.37,5.37,0,0,1-2.92.7,6.7,6.7,0,0,1-1.91-.3,5.19,5.19,0,0,1-1.84-1A5.27,5.27,0,0,1,23,41a5.92,5.92,0,0,1-.54-2.66V36.15h3.83v2a2.16,2.16,0,0,0,.51,1.48,1.91,1.91,0,0,0,2.74,0A2.29,2.29,0,0,0,30,38.06V34.23a2.66,2.66,0,0,0-.6-2.07,1.68,1.68,0,0,0-.92-.37A12.31,12.31,0,0,0,27,31.71Z"/></g></g></svg>