<svg xmlns="http://www.w3.org/2000/svg" viewBox="0 0 531.3 288.94"><defs><style>.cls-1{fill:#2c4198;}</style></defs><g id="レイヤー_2" data-name="レイヤー 2"><g id="レイヤー_1-2" data-name="レイヤー 1"><path d="M30.71,261.42A20.43,20.43,0,0,1,30,267a10.41,10.41,0,0,1-2.19,4.14,9.69,9.69,0,0,1-3.92,2.59,17,17,0,0,1-5.89.9,22.37,22.37,0,0,1-5.78-.66,9.69,9.69,0,0,1-4-2.12,8.57,8.57,0,0,1-2.35-3.76,17.79,17.79,0,0,1-.76-5.58V249.16a16.45,16.45,0,0,0-.17-2.52,4.13,4.13,0,0,0-.64-1.71,3,3,0,0,0-1.36-1,7.52,7.52,0,0,0-2.35-.45.47.47,0,0,1-.43-.26,1.21,1.21,0,0,1-.14-.55,1,1,0,0,1,.14-.52.47.47,0,0,1,.43-.24c1,0,2.17.05,3.47.16s2.52.17,3.66.17c.67,0,1.29,0,1.88-.05s1.15-.07,1.71-.12l1.69-.11c.57,0,1.18-.05,1.85-.05a.4.4,0,0,1,.4.24,1,1,0,0,1,.1.52,1.41,1.41,0,0,1-.17.55.43.43,0,0,1-.38.26,9.49,9.49,0,0,0-2.37.4,2.72,2.72,0,0,0-1.38.95,3.64,3.64,0,0,0-.62,1.69,19.54,19.54,0,0,0-.14,2.66v13a13.52,13.52,0,0,0,.52,3.8,9.22,9.22,0,0,0,1.59,3.16,7.93,7.93,0,0,0,2.69,2.16,8.35,8.35,0,0,0,3.8.81q4.61,0,7-2.54c1.61-1.7,2.42-4.38,2.42-8.06v-9.89c0-.76,0-1.51,0-2.25s-.08-1.46-.14-2.14a7,7,0,0,0-.29-1.59,5.16,5.16,0,0,0-.49-1.22,1.74,1.74,0,0,0-.65-.59,2.19,2.19,0,0,0-.95-.21c-.38,0-.85-.06-1.42-.12a.39.39,0,0,1-.36-.26,1.33,1.33,0,0,1-.12-.55,1.27,1.27,0,0,1,.1-.52.37.37,0,0,1,.38-.24,18.89,18.89,0,0,1,2.42.16,18.86,18.86,0,0,0,2.61.17,17.23,17.23,0,0,0,2.48-.17,20.9,20.9,0,0,1,2.75-.16.46.46,0,0,1,.43.24,1,1,0,0,1,.14.52,1.1,1.1,0,0,1-.14.55.46.46,0,0,1-.43.26l-1.35.12a1.72,1.72,0,0,0-.83.21,1.87,1.87,0,0,0-.6.59,8.27,8.27,0,0,0-.59,1.22,6,6,0,0,0-.36,1.57c-.08.66-.13,1.37-.16,2.11s0,1.5,0,2.26,0,1.42,0,2Z"/><path d="M54.23,267.79a15.34,15.34,0,0,0,.15,2.45A2.32,2.32,0,0,0,55,271.6a3.12,3.12,0,0,0,1.4.69,18.17,18.17,0,0,0,2.42.35.69.69,0,0,1,.46.31,1,1,0,0,1,.16.55.89.89,0,0,1-.16.52.58.58,0,0,1-.5.24,35.28,35.28,0,0,1-3.64-.19,30.94,30.94,0,0,0-3.45-.19,37.13,37.13,0,0,0-3.73.19c-1.28.12-2.44.19-3.49.19a.47.47,0,0,1-.43-.24,1,1,0,0,1-.14-.52,1.21,1.21,0,0,1,.14-.55.59.59,0,0,1,.43-.31,17.12,17.12,0,0,0,2.35-.35,3.09,3.09,0,0,0,1.38-.69,2.53,2.53,0,0,0,.67-1.36,14.05,14.05,0,0,0,.16-2.45v-21.1c0-1.17-.29-1.91-.88-2.21a7,7,0,0,0-3-.45,13.62,13.62,0,0,0-2.9.26,3.92,3.92,0,0,0-1.87,1,4.83,4.83,0,0,0-1.19,1.88,20.57,20.57,0,0,0-.84,3.09.46.46,0,0,1-.3.38,1.39,1.39,0,0,1-.53.07,1,1,0,0,1-.47-.17.38.38,0,0,1-.22-.33c.13-1.17.2-2.37.22-3.59a26.06,26.06,0,0,0-.22-3.64c0-.34.23-.58.67-.71A5.18,5.18,0,0,1,39,242H64.45a5.74,5.74,0,0,1,1.5.17.68.68,0,0,1,.59.69c-.06.38-.12.85-.16,1.4s-.07,1.16-.07,1.83,0,1.35.07,2,.1,1.37.16,2a.48.48,0,0,1-.23.36,1.13,1.13,0,0,1-.53.19,1.23,1.23,0,0,1-.54-.08.44.44,0,0,1-.31-.38,15.2,15.2,0,0,0-.76-3.11,4.86,4.86,0,0,0-1.26-1.9,4.28,4.28,0,0,0-1.93-1,12.51,12.51,0,0,0-2.71-.26,7.78,7.78,0,0,0-3.09.45c-.63.3-1,1-1,2.21Z"/><path d="M91.83,242a2.64,2.64,0,0,1,.74.1c.23.06.32.31.26.76a6.08,6.08,0,0,0-.1,1.19v1.33q0,2.13.15,4a.36.36,0,0,1-.22.31,1.12,1.12,0,0,1-.5.14,1.22,1.22,0,0,1-.54-.07.44.44,0,0,1-.31-.38,26,26,0,0,0-.67-2.9,3.5,3.5,0,0,0-.93-1.59,2.81,2.81,0,0,0-1.61-.69,23.89,23.89,0,0,0-2.69-.19H82.56c-.82,0-1.48,0-2,.05a2.28,2.28,0,0,0-1.17.35,1.59,1.59,0,0,0-.57,1,9.71,9.71,0,0,0-.14,1.85v8.32c0,.44.08.72.24.83a.85.85,0,0,0,.47.17,25.43,25.43,0,0,0,3.45-.19,4.16,4.16,0,0,0,1.9-.69,2.45,2.45,0,0,0,.86-1.31A14.75,14.75,0,0,0,86,252.3a.6.6,0,0,1,.29-.43,1,1,0,0,1,1,0,.47.47,0,0,1,.24.43c0,.51,0,1,0,1.35l-.09,1.19c0,.4-.06.81-.1,1.24s0,.92,0,1.49a20.44,20.44,0,0,0,.14,2.59,25,25,0,0,1,.14,2.83.38.38,0,0,1-.24.36.91.91,0,0,1-.52.09,1.3,1.3,0,0,1-.52-.14.51.51,0,0,1-.29-.4,16.38,16.38,0,0,0-.35-2.24,2.19,2.19,0,0,0-.86-1.3,4.32,4.32,0,0,0-1.9-.62,27.86,27.86,0,0,0-3.45-.17.85.85,0,0,0-.47.17.79.79,0,0,0-.24.69v6.22a13.6,13.6,0,0,0,.21,2.59,5.31,5.31,0,0,0,.65,1.76,3.44,3.44,0,0,0,1,1.1,4.5,4.5,0,0,0,1.48.59,11.52,11.52,0,0,0,1.49.22c.56,0,1.14.07,1.74.07a20.63,20.63,0,0,0,2.14-.1A6.8,6.8,0,0,0,89,271.6a11.14,11.14,0,0,0,1.64-.72,3.49,3.49,0,0,0,1.16-1,5.17,5.17,0,0,0,.79-1.54,13.93,13.93,0,0,0,.5-2.35.45.45,0,0,1,.33-.38,1.75,1.75,0,0,1,.62-.1,1.25,1.25,0,0,1,.59.14.35.35,0,0,1,.21.38c-.16,1.34-.3,2.58-.42,3.74a25.8,25.8,0,0,0-.15,3.54.77.77,0,0,1-.19.4c-.12.18-.42.26-.9.26H75.91c-1.21,0-2.39,0-3.54.1s-2.2.12-3.12.19a.71.71,0,0,1-.57-.22,1.09,1.09,0,0,1-.24-.52.75.75,0,0,1,.15-.57.83.83,0,0,1,.62-.31,10.44,10.44,0,0,0,1.94-.4,3.44,3.44,0,0,0,1.33-.76,3.26,3.26,0,0,0,.79-1.26,6.26,6.26,0,0,0,.26-2V250c0-.7,0-1.38-.07-2a9.5,9.5,0,0,0-.31-1.86,3.92,3.92,0,0,0-.74-1.47,2.57,2.57,0,0,0-1.35-.86c-.35-.09-.71-.17-1.09-.24s-.75-.11-1.1-.14a.47.47,0,0,1-.43-.24,1,1,0,0,1-.14-.52,1,1,0,0,1,.14-.52.47.47,0,0,1,.43-.24c1.08,0,2,0,2.9.1s1.85.09,3,.09Z"/><path d="M114.45,241.08a14.46,14.46,0,0,1,4,.52A22.54,22.54,0,0,1,122,243l1,.45a1.79,1.79,0,0,0,.78.22c.51,0,.84-.3,1-.91a.44.44,0,0,1,.31-.28,1.17,1.17,0,0,1,.52-.07,1,1,0,0,1,.45.12.23.23,0,0,1,.15.28,9,9,0,0,0-.26,1.57c0,.54-.08,1.09-.08,1.66a20,20,0,0,0,.19,2.67c.13.88.26,1.8.39,2.75a.36.36,0,0,1-.22.31,1.17,1.17,0,0,1-.52.14,1.34,1.34,0,0,1-.6-.07.43.43,0,0,1-.33-.33,11.41,11.41,0,0,0-3.85-6.3,10.8,10.8,0,0,0-6.7-2A9.37,9.37,0,0,0,109,244.5a10.06,10.06,0,0,0-3.26,3.45,14.74,14.74,0,0,0-1.69,4.66,27.53,27.53,0,0,0-.47,5,25.42,25.42,0,0,0,.57,5.33,15.83,15.83,0,0,0,1.85,4.8,10.85,10.85,0,0,0,3.35,3.49,9,9,0,0,0,5,1.36,18.81,18.81,0,0,0,4.09-.41,6.84,6.84,0,0,0,3-1.49,10.3,10.3,0,0,0,2.42-3.31A16.29,16.29,0,0,0,125.2,263a.49.49,0,0,1,.3-.43.94.94,0,0,1,.55,0,1.54,1.54,0,0,1,.53.26c.15.13.22.26.18.38-.09.64-.15,1.26-.18,1.88s0,1.24,0,1.88q0,1.62.12,3.3c.07,1.13.15,2.31.21,3.54a.5.5,0,0,1-.19.43.88.88,0,0,1-.45.17,1,1,0,0,1-.5-.1.5.5,0,0,1-.29-.35,2.72,2.72,0,0,0-.33-.84,2,2,0,0,0-.62-.66,1.49,1.49,0,0,0-.9-.26,2.36,2.36,0,0,0-1.09.33,21.59,21.59,0,0,1-2,1,12,12,0,0,1-2,.64,15,15,0,0,1-2.09.34q-1.09.09-2.37.09-8.41,0-12.48-4.2t-4.06-12a19.66,19.66,0,0,1,1.28-7.39,15.19,15.19,0,0,1,3.54-5.4,14.61,14.61,0,0,1,5.37-3.3A19.79,19.79,0,0,1,114.45,241.08Z"/><path d="M165.55,242a2.64,2.64,0,0,1,.74.1c.23.06.32.31.26.76a24.24,24.24,0,0,0-.1,3.18c0,1.21.08,2.32.14,3.33a.35.35,0,0,1-.21.31,1.12,1.12,0,0,1-.5.14,1,1,0,0,1-.54-.09.48.48,0,0,1-.31-.36,26,26,0,0,0-.67-2.9,3.5,3.5,0,0,0-.93-1.59,2.81,2.81,0,0,0-1.61-.69,23.89,23.89,0,0,0-2.69-.19h-2.85c-.82,0-1.48,0-2,.05a2.28,2.28,0,0,0-1.17.35,1.59,1.59,0,0,0-.57,1,9.71,9.71,0,0,0-.14,1.85v8.32c0,.44.08.72.24.83a.85.85,0,0,0,.47.17,25.43,25.43,0,0,0,3.45-.19,4.16,4.16,0,0,0,1.9-.69,2.45,2.45,0,0,0,.86-1.31,14.75,14.75,0,0,0,.35-2.09.6.6,0,0,1,.29-.43,1,1,0,0,1,1,0,.47.47,0,0,1,.24.43c0,.51,0,1-.05,1.35l-.09,1.19c0,.4-.07.81-.1,1.24s0,.92,0,1.49a20.44,20.44,0,0,0,.14,2.59,25,25,0,0,1,.14,2.83.38.38,0,0,1-.24.36.91.91,0,0,1-.52.09,1.3,1.3,0,0,1-.52-.14.51.51,0,0,1-.29-.4,16.38,16.38,0,0,0-.35-2.24,2.19,2.19,0,0,0-.86-1.3,4.32,4.32,0,0,0-1.9-.62,27.86,27.86,0,0,0-3.45-.17.85.85,0,0,0-.47.17.79.79,0,0,0-.24.69v8a10.54,10.54,0,0,0,.26,2.59,3,3,0,0,0,.9,1.52,3.78,3.78,0,0,0,1.69.77,24.08,24.08,0,0,0,2.62.35.49.49,0,0,1,.47.26,1.21,1.21,0,0,1,.14.6.89.89,0,0,1-.16.52.57.57,0,0,1-.5.24c-1.71,0-3.18-.07-4.4-.19a33.39,33.39,0,0,0-3.54-.19,32.26,32.26,0,0,0-3.56.19,33.94,33.94,0,0,1-3.43.19.45.45,0,0,1-.42-.24,1.18,1.18,0,0,1-.17-.52.91.91,0,0,1,.12-.55.6.6,0,0,1,.47-.31,13.2,13.2,0,0,0,2.19-.38,2.71,2.71,0,0,0,1.33-.76,2.77,2.77,0,0,0,.64-1.38,12.47,12.47,0,0,0,.17-2.28V250c0-.7,0-1.38-.07-2a9.5,9.5,0,0,0-.31-1.86,3.92,3.92,0,0,0-.74-1.47,2.57,2.57,0,0,0-1.35-.86c-.35-.09-.71-.17-1.1-.24s-.74-.11-1.09-.14a.47.47,0,0,1-.43-.24,1,1,0,0,1-.14-.52,1,1,0,0,1,.14-.52.47.47,0,0,1,.43-.24c1.08,0,2,0,2.9.1s1.85.09,3,.09Z"/><path d="M190.93,262.47a15,15,0,0,1-.81,5.13,10.27,10.27,0,0,1-2.3,3.76,9.84,9.84,0,0,1-3.59,2.3,13.06,13.06,0,0,1-4.66.79,11.31,11.31,0,0,1-4.13-.74,8.77,8.77,0,0,1-3.28-2.19,10.32,10.32,0,0,1-2.19-3.66,15.07,15.07,0,0,1-.81-5.2,11.78,11.78,0,0,1,.81-4.44,9.9,9.9,0,0,1,2.26-3.45,10.15,10.15,0,0,1,3.49-2.23,12,12,0,0,1,4.47-.81,12.72,12.72,0,0,1,4.3.71,9.68,9.68,0,0,1,3.4,2.07,9.42,9.42,0,0,1,2.23,3.35A12.2,12.2,0,0,1,190.93,262.47Zm-5,.52a25.23,25.23,0,0,0-.24-3.51,10.8,10.8,0,0,0-.85-3.05,5.68,5.68,0,0,0-1.71-2.14,4.67,4.67,0,0,0-2.81-.8,5.45,5.45,0,0,0-3.09.8,5.68,5.68,0,0,0-1.88,2.17,10.16,10.16,0,0,0-1,3.06,24.18,24.18,0,0,0-.26,3.57,23.81,23.81,0,0,0,.24,3.32,10.33,10.33,0,0,0,.9,3.09,6.54,6.54,0,0,0,1.83,2.29,4.73,4.73,0,0,0,3,.9,4.88,4.88,0,0,0,3-.86,5.79,5.79,0,0,0,1.78-2.23,10.53,10.53,0,0,0,.86-3.11A29.1,29.1,0,0,0,185.94,263Z"/><path d="M216.31,265.7c0,1.3,0,2.35.07,3.16a4.8,4.8,0,0,0,.43,1.9,1.92,1.92,0,0,0,1.07.95,5.87,5.87,0,0,0,2,.27.36.36,0,0,1,.31.21,1,1,0,0,1,.12.5,1.28,1.28,0,0,1-.1.47.34.34,0,0,1-.33.24,5.6,5.6,0,0,0-.64,0l-.53,0-.57.07c-.2,0-.47.07-.78.1s-.61.09-1.07.19l-1.4.28c-.48.1-.92.18-1.33.24a6.26,6.26,0,0,1-.81.1c-.57,0-.86-.89-.86-2.66a.1.1,0,0,0-.09-.12.19.19,0,0,0-.19.07,10.7,10.7,0,0,1-3.54,2.11,10.81,10.81,0,0,1-3.45.6,10,10,0,0,1-3.61-.55,5,5,0,0,1-2.24-1.59,6.34,6.34,0,0,1-1.14-2.59,16.83,16.83,0,0,1-.33-3.49v-5.38c0-1.36,0-2.42-.1-3.18a4.17,4.17,0,0,0-.42-1.71,1.61,1.61,0,0,0-1-.76,12.86,12.86,0,0,0-1.81-.34.36.36,0,0,1-.35-.23,1.48,1.48,0,0,1-.15-.48.89.89,0,0,1,.1-.47.41.41,0,0,1,.4-.24l1.26-.14c.53-.07,1.09-.16,1.69-.29l1.88-.4,1.83-.45q.66-.19.9.21a1.42,1.42,0,0,1,.24.69v11.31a24.68,24.68,0,0,0,.17,3.23,6.67,6.67,0,0,0,.59,2.19,2.66,2.66,0,0,0,1.19,1.24,4.26,4.26,0,0,0,1.9.38,10.88,10.88,0,0,0,3.37-.57,7.39,7.39,0,0,0,2.66-1.38.77.77,0,0,0,.17-.53q0-.37,0-.57v-7.51c0-1.36,0-2.42,0-3.18a4.34,4.34,0,0,0-.34-1.71,1.42,1.42,0,0,0-.87-.76,10.43,10.43,0,0,0-1.74-.34.48.48,0,0,1-.36-.26,1.23,1.23,0,0,1-.14-.47.79.79,0,0,1,.1-.48.41.41,0,0,1,.4-.21A18.17,18.17,0,0,0,212,253c.95-.22,2-.5,3.18-.85q.68-.19.9.21a1.42,1.42,0,0,1,.24.69Z"/><path d="M229.91,268.22c0,.79,0,1.46,0,2a4,4,0,0,0,.27,1.33,1.56,1.56,0,0,0,.71.81,4.08,4.08,0,0,0,1.4.42.64.64,0,0,1,.43.27.88.88,0,0,1,0,.95.49.49,0,0,1-.43.21,17.62,17.62,0,0,1-1.78-.17,21.83,21.83,0,0,0-2.74-.16,25.57,25.57,0,0,0-2.94.16,23.32,23.32,0,0,1-2.66.17.43.43,0,0,1-.38-.21.83.83,0,0,1,0-.95.59.59,0,0,1,.42-.27,8,8,0,0,0,1.83-.38,1.76,1.76,0,0,0,.95-.71,2.48,2.48,0,0,0,.36-1.23c0-.51.05-1.16.05-1.95v-6c0-1.55,0-2.85-.05-3.88a9.25,9.25,0,0,0-.33-2.44,2.06,2.06,0,0,0-.9-1.26,3.56,3.56,0,0,0-1.76-.36.58.58,0,0,1-.46-.19.64.64,0,0,1-.16-.43.67.67,0,0,1,.16-.47.58.58,0,0,1,.46-.19A17.71,17.71,0,0,0,225,253a30.53,30.53,0,0,0,3.55-.81.84.84,0,0,1,1,.26,1.74,1.74,0,0,1,.34,1v1.9a.11.11,0,0,0,.07.12s.08,0,.12-.07a8.72,8.72,0,0,1,.92-1.17,8.28,8.28,0,0,1,1.43-1.21,8.08,8.08,0,0,1,1.88-.95,6.58,6.58,0,0,1,2.33-.38,7.68,7.68,0,0,1,5.58,2q2,2,2,6.39v8.13c0,.86,0,1.55.07,2.09a3.42,3.42,0,0,0,.34,1.31,1.69,1.69,0,0,0,.8.76,5.54,5.54,0,0,0,1.55.4.59.59,0,0,1,.42.27.83.83,0,0,1,0,.95.46.46,0,0,1-.42.21,19.75,19.75,0,0,1-2-.17,25.73,25.73,0,0,0-5.73,0,20.07,20.07,0,0,1-2.28.17.43.43,0,0,1-.38-.21.8.8,0,0,1-.14-.46.81.81,0,0,1,.14-.49.59.59,0,0,1,.43-.27,5,5,0,0,0,1.59-.42,1.87,1.87,0,0,0,.81-.79,3.09,3.09,0,0,0,.3-1.23c0-.49,0-1.1,0-1.83v-7.23q0-1.18-.09-2.37a6.41,6.41,0,0,0-.53-2.14,3.89,3.89,0,0,0-1.23-1.57,3.61,3.61,0,0,0-2.24-.62,6.36,6.36,0,0,0-2.49.45,5.53,5.53,0,0,0-1.81,1.21,5,5,0,0,0-1.11,1.79,6,6,0,0,0-.38,2.16Z"/><path d="M270.4,265.7c0,1.3,0,2.35.07,3.16a5,5,0,0,0,.43,1.9,1.92,1.92,0,0,0,1.07.95,5.87,5.87,0,0,0,2,.27.36.36,0,0,1,.31.21,1,1,0,0,1,.12.5,1.28,1.28,0,0,1-.1.47.33.33,0,0,1-.33.24,5.6,5.6,0,0,0-.64,0l-.53,0-.57.07c-.2,0-.46.07-.78.1a10.62,10.62,0,0,0-1.05.19c-.44.1-.9.19-1.38.28s-.92.18-1.33.24a6,6,0,0,1-.8.1c-.26,0-.46-.22-.62-.67a5.64,5.64,0,0,1-.24-1.85c0-.16,0-.22-.12-.19a.6.6,0,0,0-.21.14,11,11,0,0,1-2.86,1.95,8.21,8.21,0,0,1-3.37.62,9.41,9.41,0,0,1-3.78-.74,7.93,7.93,0,0,1-2.85-2.09,9.54,9.54,0,0,1-1.81-3.3,14.2,14.2,0,0,1-.64-4.38,13.7,13.7,0,0,1,1-5.49,11.23,11.23,0,0,1,2.62-3.8,10.32,10.32,0,0,1,3.63-2.21,12.17,12.17,0,0,1,4-.71,11.64,11.64,0,0,1,2.09.21,8,8,0,0,1,2.18.74v-2.9c0-1.36,0-2.45-.09-3.26a4.22,4.22,0,0,0-.5-1.87,2,2,0,0,0-1.23-.91,14,14,0,0,0-2.26-.38c-.13,0-.23-.08-.31-.24a1,1,0,0,1-.12-.47,1.18,1.18,0,0,1,.1-.48.33.33,0,0,1,.33-.23l1.76-.12,1.95-.17c.66-.06,1.31-.16,1.94-.28s1.24-.27,1.81-.43c.41-.13.69-.1.83.07a1.16,1.16,0,0,1,.26.55Zm-4.47-9.65a6.12,6.12,0,0,0-1.94-1.68,5.33,5.33,0,0,0-2.52-.55,7.18,7.18,0,0,0-2.57.43,4.15,4.15,0,0,0-1.92,1.47,7.38,7.38,0,0,0-1.19,2.85,21.43,21.43,0,0,0-.41,4.57,14.5,14.5,0,0,0,.34,3.16,10.49,10.49,0,0,0,1,2.75,6,6,0,0,0,1.57,1.95,3.39,3.39,0,0,0,2.16.74,6.64,6.64,0,0,0,5.51-2.47Z"/><path d="M282.05,261.85c-.16,0-.25.06-.27.17s0,.24,0,.4a13.78,13.78,0,0,0,.55,4.19,7.4,7.4,0,0,0,1.52,2.78,5.7,5.7,0,0,0,2.33,1.54,8.68,8.68,0,0,0,2.92.48,18,18,0,0,0,3.14-.27,5.46,5.46,0,0,0,2.61-1.16.6.6,0,0,1,.5-.14.69.69,0,0,1,.43.24.84.84,0,0,1,.21.42.54.54,0,0,1-.09.43,8.28,8.28,0,0,1-3.42,2.76,14.73,14.73,0,0,1-9.63-.1,9,9,0,0,1-3.42-2.4,9.88,9.88,0,0,1-2-3.61,15,15,0,0,1-.64-4.49,12.32,12.32,0,0,1,.79-4.42,10.56,10.56,0,0,1,2.21-3.62,10.78,10.78,0,0,1,3.37-2.42,10.2,10.2,0,0,1,4.33-.9,9.25,9.25,0,0,1,3.63.69,8,8,0,0,1,2.78,1.9,8.52,8.52,0,0,1,1.78,2.9,10,10,0,0,1,.65,3.63c0,.67-.24,1-.72,1Zm8.7-1.66c.44,0,.69-.16.76-.48a6.12,6.12,0,0,0,.09-1.14,5.94,5.94,0,0,0-.31-1.92,5.07,5.07,0,0,0-.88-1.64,4.22,4.22,0,0,0-1.38-1.14,3.83,3.83,0,0,0-1.85-.43,5,5,0,0,0-2.21.45,4.91,4.91,0,0,0-1.57,1.19,5,5,0,0,0-1,1.73,11.89,11.89,0,0,0-.48,2.1,4.06,4.06,0,0,0-.07.92c0,.24.09.36.22.36Z"/><path d="M307.33,268.22c0,.79,0,1.46.08,2a2.35,2.35,0,0,0,.49,1.33,2.74,2.74,0,0,0,1.34.81,12.39,12.39,0,0,0,2.61.42.64.64,0,0,1,.43.27.88.88,0,0,1,0,.95.49.49,0,0,1-.43.21,34.72,34.72,0,0,1-3.61-.17,28.78,28.78,0,0,0-3-.16,27.64,27.64,0,0,0-3,.16,27.33,27.33,0,0,1-3,.17.43.43,0,0,1-.38-.21.83.83,0,0,1,0-.95.59.59,0,0,1,.42-.27,8.26,8.26,0,0,0,2.07-.42,2.14,2.14,0,0,0,1.07-.79,2.68,2.68,0,0,0,.41-1.23c0-.49.07-1.1.07-1.83v-6.94c0-1.56,0-2.78-.1-3.69a5.77,5.77,0,0,0-.45-2.09,1.8,1.8,0,0,0-1.12-1,9.73,9.73,0,0,0-2.09-.34.38.38,0,0,1-.36-.23,1.05,1.05,0,0,1-.11-.48,1,1,0,0,1,.11-.47.42.42,0,0,1,.41-.24c.63-.06,1.51-.14,2.64-.21a17.88,17.88,0,0,0,3.44-.6,1.92,1.92,0,0,1,1.1-.05c.28.1.41.37.38.81l-.1,3c0,.07,0,.11.05.12s.08,0,.14-.07a9.56,9.56,0,0,1,2.45-3.18,5.89,5.89,0,0,1,3.87-1.19,3.85,3.85,0,0,1,2.95,1,3.54,3.54,0,0,1,.95,2.5,2.13,2.13,0,0,1-.62,1.47,2.29,2.29,0,0,1-1.76.66,1.87,1.87,0,0,1-1.52-.52,1.79,1.79,0,0,1-.42-1.14,1.82,1.82,0,0,0-.27-1.05,1.28,1.28,0,0,0-1.11-.38,2.52,2.52,0,0,0-1.64.6,6,6,0,0,0-1.26,1.4,7.27,7.27,0,0,0-.81,1.66,4.63,4.63,0,0,0-.29,1.34Z"/><path d="M333.48,252.44a9.54,9.54,0,0,0-.26,1.28,10.45,10.45,0,0,0-.12,1.62c0,.6,0,1.23,0,1.88s.05,1.15.05,1.49c0,.1-.06.18-.19.24a1,1,0,0,1-.43.12.81.81,0,0,1-.42-.05.32.32,0,0,1-.24-.21,8.38,8.38,0,0,0-1.71-3.87,4.8,4.8,0,0,0-3.8-1.36,4.57,4.57,0,0,0-2.9.88,2.81,2.81,0,0,0-1.15,2.35,2.16,2.16,0,0,0,1,1.9,10.65,10.65,0,0,0,2.51,1.24l1.6.6c.61.23,1.11.43,1.49.59.83.38,1.6.78,2.31,1.19a7.87,7.87,0,0,1,1.85,1.45,6.29,6.29,0,0,1,1.24,1.87,6.12,6.12,0,0,1,.45,2.43,5.57,5.57,0,0,1-.76,3,6.15,6.15,0,0,1-1.95,1.95,8.48,8.48,0,0,1-2.71,1.06,13.45,13.45,0,0,1-3,.34,15.08,15.08,0,0,1-2.76-.29,11.42,11.42,0,0,1-2.66-.81.7.7,0,0,0-.6.1,1,1,0,0,0-.4.71c0,.1-.07.16-.21.19a2.31,2.31,0,0,1-.46,0,1.06,1.06,0,0,1-.38-.07c-.12-.05-.19-.12-.19-.22a8.6,8.6,0,0,1,.1-1,9.28,9.28,0,0,0,.09-1.24,11.65,11.65,0,0,0-.07-1.26c0-.45-.09-.91-.14-1.35s-.09-.84-.12-1.19-.05-.6-.05-.76a.3.3,0,0,1,.19-.28,1,1,0,0,1,.43-.12,1.12,1.12,0,0,1,.45,0,.36.36,0,0,1,.26.27,12,12,0,0,0,.86,2.42,5.87,5.87,0,0,0,1.31,1.76,5.11,5.11,0,0,0,1.9,1.07,8.8,8.8,0,0,0,2.68.35,4,4,0,0,0,2.78-.95,3.35,3.35,0,0,0,1.07-2.66,2.93,2.93,0,0,0-1.07-2.4,11.68,11.68,0,0,0-2.49-1.54l-1.36-.57-1.4-.57-2.06-.88a7.28,7.28,0,0,1-1.81-1.12,5,5,0,0,1-1.26-1.66,5.71,5.71,0,0,1-.48-2.48,5.43,5.43,0,0,1,.74-2.9,6,6,0,0,1,1.9-1.92,8.38,8.38,0,0,1,2.59-1.07,12.45,12.45,0,0,1,2.81-.33,8,8,0,0,1,2.35.31,9.16,9.16,0,0,1,2.26,1.11.59.59,0,0,0,.5,0c.2-.08.37-.34.5-.78a.31.31,0,0,1,.28-.24,1.94,1.94,0,0,1,.48,0,1.37,1.37,0,0,1,.42.12Q333.53,252.31,333.48,252.44Z"/><path d="M360,267.41a8.28,8.28,0,0,0,.33,2.59,3.23,3.23,0,0,0,1,1.52,4.21,4.21,0,0,0,1.72.79,14.8,14.8,0,0,0,2.4.33.49.49,0,0,1,.47.26,1.21,1.21,0,0,1,.14.6.89.89,0,0,1-.16.52.57.57,0,0,1-.5.24c-1.71,0-3.18-.07-4.4-.19a33.39,33.39,0,0,0-3.54-.19,32.26,32.26,0,0,0-3.56.19,33.94,33.94,0,0,1-3.43.19A.45.45,0,0,1,350,274a1.18,1.18,0,0,1-.17-.52A.91.91,0,0,1,350,273a.6.6,0,0,1,.47-.31,13.2,13.2,0,0,0,2.19-.38,2.51,2.51,0,0,0,2-2.14,12.47,12.47,0,0,0,.17-2.28V250.11c0-.69,0-1.39,0-2.09a7.56,7.56,0,0,0-.31-1.92,4.08,4.08,0,0,0-.76-1.5,2.34,2.34,0,0,0-1.35-.81l-1.1-.21a9.06,9.06,0,0,0-1.09-.17.47.47,0,0,1-.43-.24,1,1,0,0,1,0-1,.47.47,0,0,1,.43-.24,27.89,27.89,0,0,1,2.9.14,26.4,26.4,0,0,0,3,.14c1.9,0,3.47-.08,4.72-.16s2.45-.12,3.59-.12a17.18,17.18,0,0,1,3.73.4,9.08,9.08,0,0,1,3.24,1.38,7.37,7.37,0,0,1,2.25,2.54,8,8,0,0,1,.86,3.85,8.48,8.48,0,0,1-1,4.42,8,8,0,0,1-2.87,2.86,13.53,13.53,0,0,1-4.3,1.59,32.42,32.42,0,0,1-5.33.59,1.26,1.26,0,0,0-.69.15c-.14.09-.21.36-.21.8Zm0-10.31c0,.25.07.41.21.47a2.08,2.08,0,0,0,.79.1,17.85,17.85,0,0,0,3.9-.36,5.5,5.5,0,0,0,2.51-1.19,4.48,4.48,0,0,0,1.36-2.16,11.62,11.62,0,0,0,.4-3.33c0-2.5-.46-4.26-1.37-5.3s-2.51-1.54-4.76-1.54a4.26,4.26,0,0,0-2.45.48,2.44,2.44,0,0,0-.59,1.94Z"/><path d="M384.43,268.22c0,.79,0,1.46.07,2a2.36,2.36,0,0,0,.5,1.33,2.7,2.7,0,0,0,1.33.81,12.39,12.39,0,0,0,2.61.42.61.61,0,0,1,.43.27.81.81,0,0,1,.14.49.8.8,0,0,1-.14.46.48.48,0,0,1-.43.21,34.86,34.86,0,0,1-3.61-.17,28.46,28.46,0,0,0-3-.16,27.51,27.51,0,0,0-3,.16,27.65,27.65,0,0,1-3,.17.44.44,0,0,1-.38-.21.88.88,0,0,1,0-.95.64.64,0,0,1,.43-.27,8.47,8.47,0,0,0,2.07-.42,2.11,2.11,0,0,0,1.06-.79,2.57,2.57,0,0,0,.41-1.23c.05-.49.07-1.1.07-1.83v-6.94c0-1.56,0-2.78-.09-3.69a6,6,0,0,0-.46-2.09,1.78,1.78,0,0,0-1.11-1,10,10,0,0,0-2.09-.34.38.38,0,0,1-.36-.23,1.07,1.07,0,0,1-.12-.48,1,1,0,0,1,.12-.47.41.41,0,0,1,.4-.24c.64-.06,1.52-.14,2.64-.21a18,18,0,0,0,3.45-.6,1.88,1.88,0,0,1,1.09-.05c.29.1.41.37.38.81l-.09,3c0,.07,0,.11,0,.12s.08,0,.15-.07a9.54,9.54,0,0,1,2.44-3.18,5.9,5.9,0,0,1,3.88-1.19,3.83,3.83,0,0,1,2.94,1,3.5,3.5,0,0,1,.95,2.5,2.12,2.12,0,0,1-.61,1.47,2.31,2.31,0,0,1-1.76.66,1.86,1.86,0,0,1-1.52-.52,1.75,1.75,0,0,1-.43-1.14,1.9,1.9,0,0,0-.26-1.05,1.32,1.32,0,0,0-1.12-.38,2.54,2.54,0,0,0-1.64.6,6,6,0,0,0-1.26,1.4,7.27,7.27,0,0,0-.81,1.66,4.55,4.55,0,0,0-.28,1.34Z"/><path d="M417.7,262.47a15,15,0,0,1-.81,5.13,10.27,10.27,0,0,1-2.3,3.76,9.84,9.84,0,0,1-3.59,2.3,13.06,13.06,0,0,1-4.66.79,11.31,11.31,0,0,1-4.13-.74,8.77,8.77,0,0,1-3.28-2.19,10.32,10.32,0,0,1-2.19-3.66,15.07,15.07,0,0,1-.81-5.2,11.78,11.78,0,0,1,.81-4.44,9.9,9.9,0,0,1,2.26-3.45,10.15,10.15,0,0,1,3.49-2.23,12,12,0,0,1,4.47-.81,12.72,12.72,0,0,1,4.3.71,9.68,9.68,0,0,1,3.4,2.07,9.42,9.42,0,0,1,2.23,3.35A12.2,12.2,0,0,1,417.7,262.47Zm-5,.52a25.23,25.23,0,0,0-.24-3.51,10.8,10.8,0,0,0-.85-3.05,5.68,5.68,0,0,0-1.71-2.14,4.67,4.67,0,0,0-2.81-.8,5.45,5.45,0,0,0-3.09.8,5.68,5.68,0,0,0-1.88,2.17,10.16,10.16,0,0,0-.95,3.06,24.18,24.18,0,0,0-.26,3.57,23.81,23.81,0,0,0,.24,3.32,10.33,10.33,0,0,0,.9,3.09,6.54,6.54,0,0,0,1.83,2.29,4.73,4.73,0,0,0,3,.9,4.88,4.88,0,0,0,3-.86,5.79,5.79,0,0,0,1.78-2.23,10.53,10.53,0,0,0,.86-3.11A29.1,29.1,0,0,0,412.71,263Z"/><path d="M439.42,255.53a7.28,7.28,0,0,1,1,2.12,10.14,10.14,0,0,1,.35,2.25,8.28,8.28,0,0,1-.78,3.69,7.89,7.89,0,0,1-2.14,2.68,9.6,9.6,0,0,1-3.11,1.67,12.18,12.18,0,0,1-3.76.57c-.38,0-.87,0-1.47,0s-1.19.1-1.76.19a5,5,0,0,0-1.45.46.93.93,0,0,0-.59.88.82.82,0,0,0,.47.71,4.2,4.2,0,0,0,1.17.45,10.47,10.47,0,0,0,1.38.24c.45,0,.83.07,1.11.07,2.28.16,4.33.36,6.13.59a17.42,17.42,0,0,1,4.59,1.17,5.91,5.91,0,0,1,3.87,6,9.16,9.16,0,0,1-.8,3.81,8.32,8.32,0,0,1-2.43,3,12.26,12.26,0,0,1-4,2,18.28,18.28,0,0,1-5.44.73,23,23,0,0,1-4.71-.45,11.62,11.62,0,0,1-3.68-1.4,6.72,6.72,0,0,1-2.38-2.42,7.13,7.13,0,0,1-.83-3.52,6.44,6.44,0,0,1,.34-2.16,6.23,6.23,0,0,1,.9-1.74,8,8,0,0,1,2.76-2.33,7,7,0,0,1-2-1.07,2.6,2.6,0,0,1-.9-2.21,3.24,3.24,0,0,1,.5-1.85,3.78,3.78,0,0,1,1.33-1.24,6.69,6.69,0,0,1,1.85-.69,12.84,12.84,0,0,1,2-.26s0,0,0,0,0-.05,0-.05a9,9,0,0,1-3.8-2.64,7,7,0,0,1-1.38-4.54,8.64,8.64,0,0,1,.71-3.54,7.74,7.74,0,0,1,2-2.71,9.43,9.43,0,0,1,3.16-1.73,12.67,12.67,0,0,1,4.09-.62,9.56,9.56,0,0,1,4,.71,11.33,11.33,0,0,1,2.73,1.85,8.25,8.25,0,0,1,2.14-1.52,6.08,6.08,0,0,1,2.76-.61,8.52,8.52,0,0,1,1.16.09,3.92,3.92,0,0,1,1.19.36,2.58,2.58,0,0,1,.9.69,1.69,1.69,0,0,1,.36,1.14,2.6,2.6,0,0,1-.43,1.45,1.87,1.87,0,0,1-1.66.64,1.44,1.44,0,0,1-1.19-.38,2.87,2.87,0,0,1-.43-.81,6.53,6.53,0,0,0-.33-.81c-.13-.25-.43-.38-.91-.38a3.45,3.45,0,0,0-1.52.38A2.87,2.87,0,0,0,439.42,255.53Zm-12.88,19.92a4.43,4.43,0,0,0-1.28,1.9,6.74,6.74,0,0,0-.48,2.47,6.13,6.13,0,0,0,.74,3.06,6.86,6.86,0,0,0,1.92,2.19,8.38,8.38,0,0,0,2.74,1.31,12,12,0,0,0,3.16.43,7.63,7.63,0,0,0,4.89-1.76,6.35,6.35,0,0,0,1.53-1.9,5.1,5.1,0,0,0,.57-2.38,3.4,3.4,0,0,0-1.07-2.61,7.41,7.41,0,0,0-2.93-1.57,22,22,0,0,0-4.37-.81C430.28,275.62,428.47,275.51,426.54,275.45Zm4.57-8.7a3.94,3.94,0,0,0,3.54-1.62,8.56,8.56,0,0,0,1.07-4.7,22.57,22.57,0,0,0-.17-2.86,6.92,6.92,0,0,0-.64-2.21,3.64,3.64,0,0,0-1.26-1.42,3.76,3.76,0,0,0-2-.5,4.2,4.2,0,0,0-2.45.64,4.49,4.49,0,0,0-1.45,1.64A6.94,6.94,0,0,0,427,258a15.68,15.68,0,0,0-.19,2.43,8.49,8.49,0,0,0,1.09,4.75A3.61,3.61,0,0,0,431.11,266.75Z"/><path d="M456.15,268.22c0,.79,0,1.46.08,2a2.35,2.35,0,0,0,.49,1.33,2.74,2.74,0,0,0,1.34.81,12.39,12.39,0,0,0,2.61.42.64.64,0,0,1,.43.27.88.88,0,0,1,0,.95.49.49,0,0,1-.43.21,34.72,34.72,0,0,1-3.61-.17,28.78,28.78,0,0,0-3-.16,27.64,27.64,0,0,0-3,.16,27.33,27.33,0,0,1-3,.17.43.43,0,0,1-.38-.21.83.83,0,0,1,0-.95.59.59,0,0,1,.42-.27,8.26,8.26,0,0,0,2.07-.42,2.14,2.14,0,0,0,1.07-.79,2.68,2.68,0,0,0,.41-1.23c0-.49.07-1.1.07-1.83v-6.94c0-1.56,0-2.78-.1-3.69a5.77,5.77,0,0,0-.45-2.09,1.8,1.8,0,0,0-1.12-1,9.73,9.73,0,0,0-2.09-.34.38.38,0,0,1-.36-.23,1.05,1.05,0,0,1-.11-.48,1,1,0,0,1,.11-.47.42.42,0,0,1,.41-.24c.63-.06,1.51-.14,2.64-.21a17.88,17.88,0,0,0,3.44-.6,1.92,1.92,0,0,1,1.1-.05c.28.1.41.37.38.81l-.1,3c0,.07,0,.11.05.12s.08,0,.14-.07a9.56,9.56,0,0,1,2.45-3.18,5.87,5.87,0,0,1,3.87-1.19,3.85,3.85,0,0,1,2.95,1,3.54,3.54,0,0,1,1,2.5,2.13,2.13,0,0,1-.62,1.47,2.29,2.29,0,0,1-1.76.66,1.87,1.87,0,0,1-1.52-.52,1.79,1.79,0,0,1-.42-1.14,1.82,1.82,0,0,0-.27-1.05,1.28,1.28,0,0,0-1.11-.38,2.52,2.52,0,0,0-1.64.6,6,6,0,0,0-1.26,1.4,7.27,7.27,0,0,0-.81,1.66,4.63,4.63,0,0,0-.29,1.34Z"/><path d="M484.63,268.84a6.3,6.3,0,0,0,.3,2.33,1.21,1.21,0,0,0,1.22.66,2.55,2.55,0,0,0,.85-.12,5.08,5.08,0,0,0,.95-.49.25.25,0,0,1,.31,0,.89.89,0,0,1,.29.26.93.93,0,0,1,.16.38.36.36,0,0,1-.09.35,5.56,5.56,0,0,1-4.38,2.24,3.81,3.81,0,0,1-2.35-.74,4.75,4.75,0,0,1-1.45-1.73c-.06-.16-.16-.18-.28-.05a10.64,10.64,0,0,1-2.88,1.8,10.23,10.23,0,0,1-4.11.72A5.68,5.68,0,0,1,469,273a5.49,5.49,0,0,1-1.48-4.11,5.78,5.78,0,0,1,3.19-5.26c2.12-1.21,5.21-1.83,9.27-1.83.06,0,.11-.07.14-.23a7.69,7.69,0,0,0,.05-1.1v-1.28A13.05,13.05,0,0,0,480,257a5.73,5.73,0,0,0-.64-1.83,3.33,3.33,0,0,0-1.26-1.24,4.08,4.08,0,0,0-2-.45,5.28,5.28,0,0,0-2.85.69,2.05,2.05,0,0,0-1.1,1.78,1.83,1.83,0,0,0,.34,1,1.87,1.87,0,0,1,.33,1,1.75,1.75,0,0,1-.67,1.29,2.28,2.28,0,0,1-1.61.62,2.19,2.19,0,0,1-1.83-.69,2.62,2.62,0,0,1-.55-1.69,4.16,4.16,0,0,1,.67-2.26,6,6,0,0,1,1.8-1.83,9.93,9.93,0,0,1,2.67-1.21,11.11,11.11,0,0,1,3.18-.45,9.27,9.27,0,0,1,6,1.76q2.19,1.75,2.19,5.84Zm-4.47-4.71a2.45,2.45,0,0,0-.05-.64q0-.12-.24-.12A12.13,12.13,0,0,0,474.1,265a4.09,4.09,0,0,0-1.17,5.75,2.76,2.76,0,0,0,2.38,1,6.84,6.84,0,0,0,2.31-.43,7,7,0,0,0,2.16-1.23,1.13,1.13,0,0,0,.38-.77Z"/><path d="M498.27,268.22c0,.79,0,1.46,0,2a3.28,3.28,0,0,0,.34,1.33,1.89,1.89,0,0,0,.92.81,6.46,6.46,0,0,0,1.79.42.59.59,0,0,1,.42.27.83.83,0,0,1,0,.95.46.46,0,0,1-.42.21A21,21,0,0,1,499,274a24.16,24.16,0,0,0-2.83-.16,25.57,25.57,0,0,0-2.94.16,22.94,22.94,0,0,1-2.62.17.46.46,0,0,1-.38-.21.88.88,0,0,1,0-.95.64.64,0,0,1,.43-.27,6.52,6.52,0,0,0,1.83-.42,1.89,1.89,0,0,0,.93-.79,2.78,2.78,0,0,0,.33-1.23c0-.49.05-1.1.05-1.83v-7c0-1.49,0-2.68-.05-3.56a6.36,6.36,0,0,0-.33-2.05,1.7,1.7,0,0,0-.88-1,4.88,4.88,0,0,0-1.74-.31.46.46,0,0,1-.38-.19,1.11,1.11,0,0,1-.19-.43.64.64,0,0,1,.07-.45.44.44,0,0,1,.41-.21c.54-.07,1.32-.19,2.35-.38s2.15-.45,3.35-.76a1,1,0,0,1,.38-.08l.38,0a1,1,0,0,1,.81.38,1.17,1.17,0,0,1,.29.9l-.1,2.33c0,.16.06.18.19.05s.42-.55.79-1a8.41,8.41,0,0,1,1.42-1.33,9.17,9.17,0,0,1,2.14-1.16,7.63,7.63,0,0,1,2.88-.5,8.2,8.2,0,0,1,4.65,1.16,7.62,7.62,0,0,1,2.67,3.45,5.8,5.8,0,0,1,.9-1.31,9,9,0,0,1,1.71-1.52,11.4,11.4,0,0,1,2.38-1.26,7.79,7.79,0,0,1,2.9-.52,8.51,8.51,0,0,1,3.7.69,5.59,5.59,0,0,1,2.24,1.87,7.19,7.19,0,0,1,1.09,2.83,20.79,20.79,0,0,1,.29,3.54v7.56c0,.79,0,1.46,0,2a3.69,3.69,0,0,0,.29,1.33,1.7,1.7,0,0,0,.76.81,4.52,4.52,0,0,0,1.52.42.64.64,0,0,1,.43.27.88.88,0,0,1,0,.95.49.49,0,0,1-.43.21,18.17,18.17,0,0,1-2-.17,22.51,22.51,0,0,0-2.76-.16,25.09,25.09,0,0,0-2.92.16,21.68,21.68,0,0,1-2.49.17.43.43,0,0,1-.38-.21.83.83,0,0,1,0-.95.59.59,0,0,1,.42-.27,5.8,5.8,0,0,0,1.74-.42,2,2,0,0,0,.88-.79,2.78,2.78,0,0,0,.33-1.23c0-.49,0-1.1,0-1.83v-6.13c0-.86,0-1.75-.1-2.67a9.31,9.31,0,0,0-.5-2.52,4.5,4.5,0,0,0-1.21-1.87,3.27,3.27,0,0,0-2.28-.74,5.29,5.29,0,0,0-2.5.62,7,7,0,0,0-2,1.57,7.59,7.59,0,0,0-1.36,2.06,5.38,5.38,0,0,0-.5,2.17v7.22c0,.92,0,1.66,0,2.21a3.55,3.55,0,0,0,.28,1.31,1.39,1.39,0,0,0,.76.69,6.72,6.72,0,0,0,1.53.35.59.59,0,0,1,.42.27.81.81,0,0,1,.14.49.8.8,0,0,1-.14.46.46.46,0,0,1-.42.21,17.77,17.77,0,0,1-1.95-.17,22.51,22.51,0,0,0-2.76-.16,24.85,24.85,0,0,0-2.92.16,21,21,0,0,1-2.36.17.44.44,0,0,1-.38-.21.88.88,0,0,1,0-.95.64.64,0,0,1,.43-.27,8.29,8.29,0,0,0,1.64-.35,1.56,1.56,0,0,0,.86-.67,2.79,2.79,0,0,0,.3-1.21c0-.51.05-1.19.05-2v-6.13q0-1.29-.12-2.67a9.7,9.7,0,0,0-.54-2.52,4.46,4.46,0,0,0-1.29-1.87,3.52,3.52,0,0,0-2.37-.74,6.1,6.1,0,0,0-2.78.59,5.61,5.61,0,0,0-1.9,1.55,6.45,6.45,0,0,0-1.1,2.11,8.15,8.15,0,0,0-.35,2.31Z"/><path d="M254.86,12.64a41.45,41.45,0,0,1,2.61-4c3.36-4.15,7.19-6.25,11.51-6.25V0H190.63V2.38c4.32,0,8.16,2.1,11.52,6.25a41.45,41.45,0,0,1,2.61,4q5.79,10.41,5.8,25.57V168q0,15.17-5.8,25.57T190.63,204v2.38H269V204q-8.18,0-14.12-10.41T249.06,168V38.21Q249.06,23,254.86,12.64Z"/><path d="M321.83,91.88q0,8.18-10.41,14.12a27.22,27.22,0,0,1-13.8,3.76H268.08a69.34,69.34,0,0,1-9.51,6.76h39.17a27.67,27.67,0,0,1,13.68,3.61q10.41,5.94,10.41,14.27h2.38V91.88Z"/><path d="M329.88,0H279.13V2.5a50.66,50.66,0,0,1,48.25,48.25h2.5Z"/><path d="M404.25,12.64q6-10.26,14.28-10.26V0H340V2.38q8.33,0,14.27,10.26t5.8,25.57V168q0,15.17-6,25.57T340,204v2.38h78.5V204q-8.17,0-14.13-10.41T398.46,168V38.21Q398.46,23,404.25,12.64Z"/><path d="M465.33,0H428.68V2.38a63.59,63.59,0,0,1,0,127.18v2.38h36.65A66,66,0,0,0,465.33,0Z"/><path class="cls-1" d="M138.11,0V2.38q8.32,0,14.13,10.26l.45.82a28.71,28.71,0,0,1,3.23,13.46v32.5a70.33,70.33,0,0,1,6.76,3v-36a27.49,27.49,0,0,1,3.68-13.74Q172.3,2.38,180.48,2.38V0Z"/><path class="cls-1" d="M58.43,126.53V38.21q0-15.16,5.94-25.57T78.5,2.38V0H0V2.38q8.32,0,14.27,10.26t5.8,25.57v88.32c0,1.59.06,3.16.15,4.73a82,82,0,0,0,123.63,65.85,71.77,71.77,0,0,1-85.42-70.58Z"/></g></g></svg>