<?xml version="1.0" encoding="utf-8"?>
<!-- Generator: Adobe Illustrator 25.2.3, SVG Export Plug-In . SVG Version: 6.00 Build 0)  -->
<svg version="1.1" id="レイヤー_1" xmlns="http://www.w3.org/2000/svg" xmlns:xlink="http://www.w3.org/1999/xlink" x="0px"
	 y="0px" viewBox="0 0 531.3 288.9" style="enable-background:new 0 0 531.3 288.9;" xml:space="preserve">
<style type="text/css">
	.st0{fill:#FFFFFF;}
</style>
<g id="レイヤー_2_1_">
	<g id="レイヤー_1-2">
		<path class="st0" d="M30.7,261.4c0,1.9-0.2,3.8-0.7,5.6c-0.4,1.5-1.2,2.9-2.2,4.1c-1.1,1.2-2.4,2.1-3.9,2.6
			c-1.9,0.6-3.9,1-5.9,0.9c-1.9,0-3.9-0.2-5.8-0.7c-1.5-0.4-2.9-1.1-4-2.1c-1.1-1-1.9-2.3-2.3-3.8c-0.5-1.8-0.8-3.7-0.8-5.6v-13.4
			c0-0.8,0-1.7-0.2-2.5c-0.1-0.6-0.3-1.2-0.6-1.7c-0.3-0.5-0.8-0.8-1.4-1c-0.8-0.3-1.5-0.4-2.3-0.4c-0.2,0-0.3-0.1-0.4-0.3
			c-0.1-0.2-0.1-0.4-0.1-0.6c0-0.2,0-0.4,0.1-0.5c0.1-0.2,0.3-0.2,0.4-0.2c1,0,2.2,0.1,3.5,0.2s2.5,0.2,3.7,0.2c0.7,0,1.3,0,1.9-0.1
			s1.1-0.1,1.7-0.1L13,242c0.6,0,1.2-0.1,1.9-0.1c0.2,0,0.3,0.1,0.4,0.2c0.1,0.2,0.1,0.3,0.1,0.5c0,0.2-0.1,0.4-0.2,0.6
			c-0.1,0.2-0.2,0.3-0.4,0.3c-0.8,0-1.6,0.2-2.4,0.4c-0.5,0.2-1,0.5-1.4,0.9c-0.3,0.5-0.6,1.1-0.6,1.7c-0.1,0.9-0.2,1.8-0.1,2.7v13
			c0,1.3,0.2,2.6,0.5,3.8c0.3,1.1,0.9,2.2,1.6,3.2c0.7,0.9,1.6,1.6,2.7,2.2c1.2,0.6,2.5,0.8,3.8,0.8c3.1,0,5.4-0.8,7-2.5
			c1.6-1.7,2.4-4.4,2.4-8.1v-9.9c0-0.8,0-1.5,0-2.2s-0.1-1.5-0.1-2.1c0-0.5-0.1-1.1-0.3-1.6c-0.1-0.4-0.3-0.8-0.5-1.2
			c-0.2-0.2-0.4-0.5-0.6-0.6c-0.3-0.1-0.6-0.2-1-0.2c-0.4,0-0.9-0.1-1.4-0.1c-0.2,0-0.3-0.1-0.4-0.3c-0.1-0.2-0.1-0.4-0.1-0.6
			c0-0.2,0-0.4,0.1-0.5c0.1-0.2,0.2-0.3,0.4-0.2c0.8,0,1.6,0.1,2.4,0.2c0.9,0.1,1.7,0.2,2.6,0.2c0.8,0,1.7-0.1,2.5-0.2
			c0.9-0.1,1.8-0.2,2.8-0.2c0.2,0,0.3,0.1,0.4,0.2c0.1,0.2,0.1,0.3,0.1,0.5c0,0.2,0,0.4-0.1,0.6c-0.1,0.2-0.2,0.3-0.4,0.3l-1.3,0.1
			c-0.3,0-0.6,0.1-0.8,0.2c-0.2,0.1-0.4,0.4-0.6,0.6c-0.2,0.4-0.4,0.8-0.6,1.2c-0.2,0.5-0.3,1-0.4,1.6c-0.1,0.7-0.1,1.4-0.2,2.1
			s0,1.5,0,2.3s0,1.4,0,2L30.7,261.4z"/>
		<path class="st0" d="M54.2,267.8c0,0.8,0,1.6,0.2,2.5c0.1,0.5,0.3,1,0.6,1.4c0.4,0.3,0.9,0.6,1.4,0.7c0.8,0.2,1.6,0.3,2.4,0.4
			c0.2,0,0.4,0.1,0.5,0.3c0.1,0.2,0.2,0.4,0.2,0.5c0,0.2-0.1,0.4-0.2,0.5c-0.1,0.2-0.3,0.3-0.5,0.2c-1.2,0-2.4-0.1-3.6-0.2
			c-1.1-0.1-2.3-0.2-3.5-0.2c-1.2,0-2.5,0.1-3.7,0.2c-1.3,0.1-2.4,0.2-3.5,0.2c-0.2,0-0.3-0.1-0.4-0.2c-0.1-0.2-0.1-0.3-0.1-0.5
			c0-0.2,0.1-0.4,0.1-0.5c0.1-0.2,0.2-0.3,0.4-0.3c0.8-0.1,1.6-0.2,2.3-0.4c0.5-0.1,1-0.3,1.4-0.7c0.4-0.4,0.6-0.8,0.7-1.4
			c0.1-0.8,0.2-1.6,0.2-2.5v-21.1c0-1.2-0.3-1.9-0.9-2.2c-1-0.4-2-0.5-3-0.4c-1,0-1.9,0.1-2.9,0.3c-0.7,0.2-1.4,0.5-1.9,1
			c-0.5,0.5-0.9,1.2-1.2,1.9c-0.4,1-0.6,2-0.8,3.1c0,0.2-0.1,0.3-0.3,0.4c-0.2,0.1-0.4,0.1-0.5,0.1c-0.2,0-0.3-0.1-0.5-0.2
			c-0.1-0.1-0.2-0.2-0.2-0.3c0.1-1.2,0.2-2.4,0.2-3.6c0-1.2-0.1-2.4-0.2-3.6c0-0.3,0.2-0.6,0.7-0.7c0.5-0.2,1-0.3,1.5-0.3h25.4
			c0.5,0,1,0,1.5,0.2c0.3,0,0.6,0.3,0.6,0.7c-0.1,0.4-0.1,0.9-0.2,1.4s-0.1,1.2-0.1,1.8s0,1.4,0.1,2s0.1,1.4,0.2,2
			c0,0.1-0.1,0.3-0.2,0.4c-0.2,0.1-0.3,0.2-0.5,0.2c-0.2,0-0.4,0-0.5-0.1c-0.2-0.1-0.3-0.2-0.3-0.4c-0.1-1.1-0.4-2.1-0.8-3.1
			c-0.3-0.7-0.7-1.4-1.3-1.9c-0.5-0.5-1.2-0.8-1.9-1c-0.9-0.2-1.8-0.3-2.7-0.3c-1-0.1-2.1,0.1-3.1,0.4c-0.6,0.3-1,1-1,2.2
			L54.2,267.8z"/>
		<path class="st0" d="M91.8,242c0.3,0,0.5,0,0.7,0.1c0.2,0.1,0.3,0.3,0.3,0.8c-0.1,0.4-0.1,0.8-0.1,1.2v1.3c0,1.4,0.1,2.8,0.2,4
			c0,0.1-0.1,0.3-0.2,0.3c-0.2,0.1-0.3,0.1-0.5,0.1c-0.2,0-0.4,0-0.5-0.1c-0.2-0.1-0.3-0.2-0.3-0.4c-0.2-1-0.4-1.9-0.7-2.9
			c-0.2-0.6-0.5-1.2-0.9-1.6c-0.4-0.4-1-0.6-1.6-0.7c-0.9-0.1-1.8-0.2-2.7-0.2h-2.9c-0.8,0-1.5,0-2,0.1c-0.4,0-0.8,0.1-1.2,0.4
			c-0.3,0.3-0.5,0.6-0.6,1c-0.1,0.6-0.2,1.2-0.1,1.9v8.3c0,0.4,0.1,0.7,0.2,0.8c0.1,0.1,0.3,0.2,0.5,0.2c1.2,0,2.3,0,3.4-0.2
			c0.7-0.1,1.3-0.3,1.9-0.7c0.4-0.3,0.7-0.8,0.9-1.3c0.2-0.7,0.3-1.4,0.4-2.1c0-0.2,0.1-0.3,0.3-0.4c0.3-0.2,0.7-0.2,1,0
			c0.2,0.1,0.2,0.3,0.2,0.4c0,0.5,0,1,0,1.4l-0.1,1.2c0,0.4-0.1,0.8-0.1,1.2c0,0.4,0,0.9,0,1.5c0,0.9,0,1.7,0.1,2.6
			c0.1,0.9,0.1,1.9,0.1,2.8c0,0.2-0.1,0.3-0.2,0.4c-0.2,0.1-0.3,0.1-0.5,0.1c-0.2,0-0.4-0.1-0.5-0.1c-0.2-0.1-0.3-0.2-0.3-0.4
			c-0.1-0.8-0.2-1.5-0.3-2.2c-0.1-0.5-0.4-1-0.9-1.3c-0.6-0.4-1.2-0.6-1.9-0.6c-1.1-0.1-2.3-0.2-3.4-0.2c-0.2,0-0.3,0.1-0.5,0.2
			c-0.2,0.2-0.3,0.4-0.2,0.7v6.2c0,0.9,0.1,1.7,0.2,2.6c0.1,0.6,0.3,1.2,0.7,1.8c0.2,0.4,0.6,0.8,1,1.1c0.5,0.3,1,0.5,1.5,0.6
			c0.5,0.1,1,0.2,1.5,0.2c0.6,0,1.1,0.1,1.7,0.1c0.8,0,1.5,0,2.1-0.1c0.5,0,1-0.1,1.5-0.3c0.6-0.2,1.1-0.4,1.6-0.7
			c0.5-0.2,0.9-0.6,1.2-1c0.3-0.5,0.6-1,0.8-1.5c0.2-0.8,0.4-1.6,0.5-2.4c0-0.2,0.2-0.3,0.3-0.4c0.2-0.1,0.4-0.1,0.6-0.1
			c0.2,0,0.4,0,0.6,0.1c0.1,0.1,0.2,0.2,0.2,0.4c-0.2,1.3-0.3,2.6-0.4,3.7c-0.1,1.2-0.2,2.4-0.2,3.5c0,0.1-0.1,0.3-0.2,0.4
			c-0.1,0.2-0.4,0.3-0.9,0.3H75.9c-1.2,0-2.4,0-3.5,0.1s-2.2,0.1-3.1,0.2c-0.2,0-0.4-0.1-0.6-0.2c-0.1-0.1-0.2-0.3-0.2-0.5
			c0-0.2,0-0.4,0.2-0.6c0.2-0.2,0.4-0.3,0.6-0.3c0.7-0.1,1.3-0.2,1.9-0.4c0.5-0.2,0.9-0.4,1.3-0.8c0.4-0.4,0.6-0.8,0.8-1.3
			c0.2-0.6,0.3-1.3,0.3-2V250c0-0.7,0-1.4-0.1-2c0-0.6-0.1-1.3-0.3-1.9c-0.1-0.5-0.4-1-0.7-1.5c-0.3-0.4-0.8-0.7-1.3-0.9
			c-0.3-0.1-0.7-0.2-1.1-0.2s-0.8-0.1-1.1-0.1c-0.2,0-0.3-0.1-0.4-0.2c-0.1-0.2-0.1-0.3-0.1-0.5c0-0.2,0-0.4,0.1-0.5
			c0.1-0.2,0.3-0.2,0.4-0.2c1.1,0,2,0,2.9,0.1s1.8,0.1,3,0.1L91.8,242z"/>
		<path class="st0" d="M114.4,241.1c1.4,0,2.7,0.2,4,0.5c1.2,0.4,2.4,0.8,3.6,1.4l1,0.4c0.2,0.1,0.5,0.2,0.8,0.2
			c0.5,0,0.8-0.3,1-0.9c0-0.1,0.2-0.2,0.3-0.3c0.2-0.1,0.3-0.1,0.5-0.1c0.2,0,0.3,0,0.4,0.1c0.1,0,0.2,0.2,0.2,0.3
			c-0.1,0.5-0.2,1-0.3,1.6c0,0.5-0.1,1.1-0.1,1.7c0,0.9,0.1,1.8,0.2,2.7c0.1,0.9,0.3,1.8,0.4,2.8c0,0.1-0.1,0.3-0.2,0.3
			c-0.2,0.1-0.3,0.1-0.5,0.1c-0.2,0-0.4,0-0.6-0.1c-0.2,0-0.3-0.2-0.3-0.3c-0.5-2.5-1.9-4.7-3.8-6.3c-1.9-1.4-4.3-2.1-6.7-2
			c-1.8-0.1-3.7,0.4-5.2,1.3c-1.3,0.9-2.5,2.1-3.3,3.4c-0.8,1.4-1.4,3-1.7,4.7c-0.3,1.6-0.5,3.3-0.5,5c0,1.8,0.2,3.6,0.6,5.3
			c0.4,1.7,1,3.3,1.8,4.8c0.8,1.4,2,2.6,3.3,3.5c1.5,0.9,3.2,1.4,5,1.4c1.4,0,2.7-0.1,4.1-0.4c1.1-0.2,2.1-0.8,3-1.5
			c1-0.9,1.8-2.1,2.4-3.3c0.7-1.4,1.1-2.9,1.3-4.4c0-0.2,0.1-0.4,0.3-0.4c0.2-0.1,0.4-0.1,0.6,0c0.2,0.1,0.4,0.1,0.5,0.3
			c0.2,0.1,0.2,0.3,0.2,0.4c-0.1,0.6-0.2,1.3-0.2,1.9s0,1.2,0,1.9c0,1.1,0,2.2,0.1,3.3c0.1,1.1,0.2,2.3,0.2,3.5
			c0,0.2-0.1,0.3-0.2,0.4c-0.1,0.1-0.3,0.2-0.4,0.2c-0.2,0-0.3,0-0.5-0.1c-0.1-0.1-0.3-0.2-0.3-0.4c-0.1-0.3-0.2-0.6-0.3-0.8
			c-0.2-0.3-0.4-0.5-0.6-0.7c-0.3-0.2-0.6-0.3-0.9-0.3c-0.4,0-0.8,0.1-1.1,0.3c-0.6,0.4-1.3,0.7-2,1c-0.6,0.3-1.3,0.5-2,0.6
			c-0.7,0.2-1.4,0.3-2.1,0.3c-0.7,0.1-1.5,0.1-2.4,0.1c-5.6,0-9.8-1.4-12.5-4.2c-2.7-2.8-4.1-6.8-4.1-12c-0.1-2.5,0.4-5,1.3-7.4
			c0.8-2,2-3.9,3.5-5.4c1.5-1.5,3.4-2.6,5.4-3.3C109.9,241.5,112.2,241.1,114.4,241.1z"/>
		<path class="st0" d="M165.6,242c0.3,0,0.5,0,0.7,0.1c0.2,0.1,0.3,0.3,0.3,0.8c-0.1,1.1-0.1,2.1-0.1,3.2c0,1.2,0.1,2.3,0.1,3.3
			c0,0.1-0.1,0.3-0.2,0.3c-0.2,0.1-0.3,0.1-0.5,0.1c-0.2,0-0.4,0-0.5-0.1c-0.2-0.1-0.3-0.2-0.3-0.4c-0.2-1-0.4-1.9-0.7-2.9
			c-0.2-0.6-0.5-1.2-0.9-1.6c-0.4-0.4-1-0.6-1.6-0.7c-0.9-0.1-1.8-0.2-2.7-0.2h-2.9c-0.8,0-1.5,0-2,0.1c-0.4,0-0.8,0.1-1.2,0.4
			c-0.3,0.3-0.5,0.6-0.6,1c-0.1,0.6-0.2,1.2-0.1,1.9v8.3c0,0.4,0.1,0.7,0.2,0.8c0.1,0.1,0.3,0.2,0.5,0.2c1.2,0,2.3,0,3.4-0.2
			c0.7-0.1,1.3-0.3,1.9-0.7c0.4-0.3,0.7-0.8,0.9-1.3c0.2-0.7,0.3-1.4,0.4-2.1c0-0.2,0.1-0.3,0.3-0.4c0.3-0.2,0.7-0.2,1,0
			c0.2,0.1,0.2,0.3,0.2,0.4c0,0.5,0,1-0.1,1.4l-0.1,1.2c0,0.4-0.1,0.8-0.1,1.2s0,0.9,0,1.5c0,0.9,0,1.7,0.1,2.6
			c0.1,0.9,0.1,1.9,0.1,2.8c0,0.2-0.1,0.3-0.2,0.4c-0.2,0.1-0.3,0.1-0.5,0.1c-0.2,0-0.4-0.1-0.5-0.1c-0.2-0.1-0.3-0.2-0.3-0.4
			c-0.1-0.8-0.2-1.5-0.4-2.2c-0.1-0.5-0.4-1-0.9-1.3c-0.6-0.4-1.2-0.6-1.9-0.6c-1.1-0.1-2.3-0.2-3.4-0.2c-0.2,0-0.3,0.1-0.5,0.2
			c-0.2,0.2-0.3,0.4-0.2,0.7v8c0,0.9,0.1,1.7,0.3,2.6c0.1,0.6,0.5,1.1,0.9,1.5c0.5,0.4,1.1,0.7,1.7,0.8c0.9,0.2,1.7,0.3,2.6,0.4
			c0.2,0,0.4,0.1,0.5,0.3c0.1,0.2,0.1,0.4,0.1,0.6c0,0.2-0.1,0.4-0.2,0.5c-0.1,0.2-0.3,0.3-0.5,0.2c-1.7,0-3.2-0.1-4.4-0.2
			c-1.2-0.1-2.4-0.2-3.5-0.2c-1.2,0-2.4,0.1-3.6,0.2c-1.1,0.1-2.3,0.2-3.4,0.2c-0.2,0-0.3-0.1-0.4-0.2c-0.1-0.2-0.2-0.3-0.2-0.5
			c0-0.2,0-0.4,0.1-0.5c0.1-0.2,0.3-0.3,0.5-0.3c0.7-0.1,1.5-0.2,2.2-0.4c0.5-0.1,1-0.4,1.3-0.8c0.3-0.4,0.6-0.9,0.6-1.4
			c0.1-0.8,0.2-1.5,0.2-2.3V250c0-0.7,0-1.4-0.1-2c0-0.6-0.1-1.3-0.3-1.9c-0.1-0.5-0.4-1-0.7-1.5c-0.3-0.4-0.8-0.7-1.4-0.9
			c-0.4-0.1-0.7-0.2-1.1-0.2s-0.7-0.1-1.1-0.1c-0.2,0-0.3-0.1-0.4-0.2c-0.1-0.2-0.1-0.3-0.1-0.5c0-0.2,0-0.4,0.1-0.5
			c0.1-0.2,0.3-0.2,0.4-0.2c1.1,0,2,0,2.9,0.1s1.9,0.1,3,0.1L165.6,242z"/>
		<path class="st0" d="M190.9,262.5c0,1.7-0.2,3.5-0.8,5.1c-0.5,1.4-1.3,2.7-2.3,3.8c-1,1-2.2,1.8-3.6,2.3c-1.5,0.5-3.1,0.8-4.7,0.8
			c-1.4,0-2.8-0.2-4.1-0.7c-1.2-0.5-2.4-1.2-3.3-2.2c-1-1.1-1.7-2.3-2.2-3.7c-0.6-1.7-0.8-3.4-0.8-5.2c0-1.5,0.3-3,0.8-4.4
			c0.5-1.3,1.3-2.5,2.3-3.4c1-1,2.2-1.7,3.5-2.2c1.4-0.6,2.9-0.8,4.5-0.8c1.5,0,2.9,0.2,4.3,0.7c1.3,0.4,2.4,1.2,3.4,2.1
			c1,0.9,1.7,2.1,2.2,3.3C190.7,259.3,191,260.9,190.9,262.5z M185.9,263c0-1.2-0.1-2.3-0.2-3.5c-0.1-1.1-0.4-2.1-0.9-3
			c-0.4-0.8-1-1.6-1.7-2.1c-0.8-0.6-1.8-0.8-2.8-0.8c-1.1,0-2.2,0.2-3.1,0.8c-0.8,0.6-1.4,1.3-1.9,2.2c-0.5,1-0.8,2-1,3.1
			c-0.2,1.2-0.3,2.4-0.3,3.6c0,1.1,0.1,2.2,0.2,3.3c0.1,1.1,0.4,2.1,0.9,3.1c0.4,0.9,1.1,1.7,1.8,2.3c0.9,0.6,1.9,0.9,3,0.9
			c1.1,0,2.1-0.3,3-0.9c0.8-0.6,1.4-1.3,1.8-2.2c0.4-1,0.7-2,0.9-3.1C185.8,265.3,185.9,264.2,185.9,263L185.9,263z"/>
		<path class="st0" d="M216.3,265.7c0,1.3,0,2.4,0.1,3.2c0,0.7,0.2,1.3,0.4,1.9c0.2,0.4,0.6,0.8,1.1,1c0.6,0.2,1.3,0.3,2,0.3
			c0.1,0,0.3,0.1,0.3,0.2c0.1,0.2,0.1,0.3,0.1,0.5c0,0.2,0,0.3-0.1,0.5c0,0.1-0.2,0.2-0.3,0.2c-0.2,0-0.4,0-0.6,0h-0.5l-0.6,0.1
			c-0.2,0-0.5,0.1-0.8,0.1s-0.6,0.1-1.1,0.2l-1.4,0.3c-0.5,0.1-0.9,0.2-1.3,0.2c-0.3,0.1-0.5,0.1-0.8,0.1c-0.6,0-0.9-0.9-0.9-2.7
			c0-0.1,0-0.1-0.1-0.1c0,0,0,0,0,0c-0.1,0-0.1,0-0.2,0.1c-1,0.9-2.2,1.6-3.5,2.1c-1.1,0.4-2.3,0.6-3.4,0.6c-1.2,0-2.5-0.1-3.6-0.5
			c-0.9-0.3-1.7-0.9-2.2-1.6c-0.6-0.8-1-1.7-1.1-2.6c-0.2-1.1-0.3-2.3-0.3-3.5v-5.4c0-1.4,0-2.4-0.1-3.2c0-0.6-0.2-1.2-0.4-1.7
			c-0.2-0.4-0.6-0.7-1-0.8c-0.6-0.2-1.2-0.3-1.8-0.3c-0.2,0-0.3-0.1-0.4-0.2c-0.1-0.2-0.1-0.3-0.1-0.5c0-0.2,0-0.3,0.1-0.5
			c0.1-0.2,0.2-0.3,0.4-0.2l1.3-0.1c0.5-0.1,1.1-0.2,1.7-0.3l1.9-0.4l1.8-0.4c0.4-0.1,0.7-0.1,0.9,0.2c0.1,0.2,0.2,0.4,0.2,0.7v11.3
			c0,1.1,0,2.2,0.2,3.2c0.1,0.8,0.3,1.5,0.6,2.2c0.2,0.5,0.7,1,1.2,1.2c0.6,0.3,1.2,0.4,1.9,0.4c1.1,0,2.3-0.2,3.4-0.6
			c1-0.3,1.9-0.7,2.7-1.4c0.1-0.1,0.2-0.3,0.2-0.5c0-0.2,0-0.4,0-0.6v-7.5c0-1.4,0-2.4,0-3.2c0-0.6-0.1-1.2-0.3-1.7
			c-0.2-0.4-0.5-0.6-0.9-0.8c-0.6-0.2-1.2-0.3-1.7-0.3c-0.2,0-0.3-0.1-0.4-0.3c-0.1-0.1-0.1-0.3-0.1-0.5c0-0.2,0-0.3,0.1-0.5
			c0.1-0.1,0.2-0.2,0.4-0.2c1.1,0,2.1-0.2,3.1-0.4c0.9-0.2,2-0.5,3.2-0.9c0.5-0.1,0.8-0.1,0.9,0.2c0.1,0.2,0.2,0.4,0.2,0.7
			L216.3,265.7z"/>
		<path class="st0" d="M229.9,268.2c0,0.8,0,1.5,0,2c0,0.5,0.1,0.9,0.3,1.3c0.1,0.3,0.4,0.6,0.7,0.8c0.4,0.2,0.9,0.4,1.4,0.4
			c0.2,0,0.3,0.1,0.4,0.3c0.2,0.3,0.2,0.7,0,1c-0.1,0.1-0.3,0.2-0.4,0.2c-0.6,0-1.2-0.1-1.8-0.2c-0.9-0.1-1.8-0.2-2.7-0.2
			c-1,0-2,0.1-2.9,0.2c-0.9,0.1-1.8,0.2-2.7,0.2c-0.2,0-0.3-0.1-0.4-0.2c-0.2-0.3-0.2-0.7,0-1c0.1-0.1,0.2-0.2,0.4-0.3
			c0.6-0.1,1.2-0.2,1.8-0.4c0.4-0.1,0.7-0.4,0.9-0.7c0.2-0.4,0.3-0.8,0.4-1.2c0-0.5,0.1-1.2,0.1-2v-6c0-1.5,0-2.9-0.1-3.9
			c0-0.8-0.1-1.6-0.3-2.4c-0.1-0.5-0.4-1-0.9-1.3c-0.5-0.3-1.2-0.4-1.8-0.4c-0.2,0-0.3-0.1-0.5-0.2c-0.1-0.1-0.2-0.3-0.2-0.4
			c0-0.2,0-0.3,0.2-0.5c0.1-0.1,0.3-0.2,0.5-0.2c0.9,0,1.8-0.1,2.6-0.3c1.2-0.2,2.4-0.5,3.6-0.8c0.4-0.2,0.8,0,1,0.3
			c0.2,0.3,0.3,0.6,0.3,1v1.9c0,0.1,0,0.1,0.1,0.1c0,0,0.1,0,0.1-0.1c0.3-0.4,0.6-0.8,0.9-1.2c0.4-0.5,0.9-0.9,1.4-1.2
			c0.6-0.4,1.2-0.7,1.9-0.9c0.7-0.3,1.5-0.4,2.3-0.4c2.1-0.1,4.1,0.6,5.6,2c1.3,1.3,2,3.5,2,6.4v8.1c0,0.9,0,1.5,0.1,2.1
			c0,0.5,0.1,0.9,0.3,1.3c0.2,0.3,0.5,0.6,0.8,0.8c0.5,0.2,1,0.3,1.6,0.4c0.2,0,0.3,0.1,0.4,0.3c0.2,0.3,0.2,0.7,0,1
			c-0.1,0.1-0.3,0.2-0.4,0.2c-0.7,0-1.3-0.1-2-0.2c-1.9-0.2-3.8-0.2-5.7,0c-0.8,0.1-1.5,0.2-2.3,0.2c-0.2,0-0.3-0.1-0.4-0.2
			c-0.1-0.1-0.1-0.3-0.1-0.5c0-0.2,0-0.3,0.1-0.5c0.1-0.2,0.3-0.2,0.4-0.3c0.5-0.1,1.1-0.2,1.6-0.4c0.3-0.2,0.6-0.5,0.8-0.8
			c0.2-0.4,0.3-0.8,0.3-1.2c0-0.5,0-1.1,0-1.8v-7.2c0-0.8,0-1.6-0.1-2.4c-0.1-0.7-0.2-1.5-0.5-2.1c-0.3-0.6-0.7-1.2-1.2-1.6
			c-0.7-0.4-1.4-0.7-2.2-0.6c-0.9,0-1.7,0.1-2.5,0.4c-0.7,0.3-1.3,0.7-1.8,1.2c-0.5,0.5-0.9,1.1-1.1,1.8c-0.3,0.7-0.4,1.4-0.4,2.2
			L229.9,268.2z"/>
		<path class="st0" d="M270.4,265.7c0,1.3,0,2.4,0.1,3.2c0,0.7,0.2,1.3,0.4,1.9c0.2,0.4,0.6,0.8,1.1,1c0.6,0.2,1.3,0.3,2,0.3
			c0.1,0,0.3,0.1,0.3,0.2c0.1,0.2,0.1,0.3,0.1,0.5c0,0.2,0,0.3-0.1,0.5c0,0.1-0.2,0.2-0.3,0.2c-0.2,0-0.4,0-0.6,0h-0.5l-0.6,0.1
			c-0.2,0-0.5,0.1-0.8,0.1c-0.4,0-0.7,0.1-1,0.2c-0.4,0.1-0.9,0.2-1.4,0.3s-0.9,0.2-1.3,0.2c-0.3,0.1-0.5,0.1-0.8,0.1
			c-0.3,0-0.5-0.2-0.6-0.7c-0.2-0.6-0.3-1.2-0.2-1.9c0-0.2,0-0.2-0.1-0.2c-0.1,0-0.2,0.1-0.2,0.1c-0.8,0.8-1.8,1.5-2.9,2
			c-1.1,0.4-2.2,0.7-3.4,0.6c-1.3,0-2.6-0.2-3.8-0.7c-1.1-0.5-2.1-1.2-2.9-2.1c-0.8-1-1.4-2.1-1.8-3.3c-0.4-1.4-0.7-2.9-0.6-4.4
			c0-1.9,0.3-3.7,1-5.5c0.6-1.4,1.5-2.7,2.6-3.8c1-1,2.3-1.7,3.6-2.2c1.3-0.5,2.6-0.7,4-0.7c0.7,0,1.4,0.1,2.1,0.2
			c0.8,0.1,1.5,0.4,2.2,0.7v-2.9c0-1.4,0-2.4-0.1-3.3c0-0.7-0.2-1.3-0.5-1.9c-0.3-0.5-0.7-0.8-1.2-0.9c-0.7-0.2-1.5-0.3-2.3-0.4
			c-0.1,0-0.2-0.1-0.3-0.2c-0.1-0.1-0.1-0.3-0.1-0.5c0-0.2,0-0.3,0.1-0.5c0-0.1,0.2-0.2,0.3-0.2l1.8-0.1l2-0.2
			c0.7-0.1,1.3-0.2,1.9-0.3s1.2-0.3,1.8-0.4c0.4-0.1,0.7-0.1,0.8,0.1c0.1,0.2,0.2,0.3,0.3,0.6L270.4,265.7z M265.9,256.1
			c-0.5-0.7-1.2-1.3-1.9-1.7c-0.8-0.4-1.6-0.6-2.5-0.6c-0.9,0-1.7,0.1-2.6,0.4c-0.8,0.3-1.4,0.8-1.9,1.5c-0.6,0.9-1,1.8-1.2,2.8
			c-0.3,1.5-0.4,3-0.4,4.6c0,1.1,0.1,2.1,0.3,3.2c0.2,1,0.5,1.9,1,2.8c0.4,0.8,0.9,1.4,1.6,2c0.6,0.5,1.4,0.8,2.2,0.7
			c2.1,0.1,4.2-0.8,5.5-2.5L265.9,256.1z"/>
		<path class="st0" d="M282,261.9c-0.2,0-0.2,0.1-0.3,0.2s0,0.2,0,0.4c0,1.4,0.2,2.8,0.5,4.2c0.3,1,0.8,2,1.5,2.8
			c0.6,0.7,1.4,1.2,2.3,1.5c0.9,0.3,1.9,0.5,2.9,0.5c1.1,0,2.1-0.1,3.1-0.3c1-0.1,1.9-0.5,2.6-1.2c0.1-0.1,0.3-0.2,0.5-0.1
			c0.2,0,0.3,0.1,0.4,0.2c0.1,0.1,0.2,0.3,0.2,0.4c0,0.1,0,0.3-0.1,0.4c-0.9,1.2-2.1,2.2-3.4,2.8c-3.1,1-6.5,1-9.6-0.1
			c-1.3-0.5-2.5-1.3-3.4-2.4c-0.9-1-1.6-2.3-2-3.6c-0.4-1.5-0.7-3-0.6-4.5c0-1.5,0.3-3,0.8-4.4c0.5-1.3,1.2-2.6,2.2-3.6
			c1-1,2.1-1.8,3.4-2.4c1.4-0.6,2.8-0.9,4.3-0.9c1.2,0,2.5,0.2,3.6,0.7c1.1,0.4,2,1.1,2.8,1.9c0.8,0.8,1.4,1.8,1.8,2.9
			c0.4,1.2,0.7,2.4,0.6,3.6c0,0.7-0.2,1-0.7,1L282,261.9z M290.8,260.2c0.4,0,0.7-0.2,0.8-0.5c0.1-0.4,0.1-0.8,0.1-1.1
			c0-0.7-0.1-1.3-0.3-1.9c-0.2-0.6-0.5-1.2-0.9-1.6c-0.4-0.5-0.8-0.9-1.4-1.1c-0.6-0.3-1.2-0.4-1.9-0.4c-0.8,0-1.5,0.1-2.2,0.4
			c-0.6,0.3-1.1,0.7-1.6,1.2c-0.4,0.5-0.8,1.1-1,1.7c-0.2,0.7-0.4,1.4-0.5,2.1c-0.1,0.3-0.1,0.6-0.1,0.9c0,0.2,0.1,0.4,0.2,0.4
			L290.8,260.2z"/>
		<path class="st0" d="M307.3,268.2c0,0.8,0,1.5,0.1,2c0,0.5,0.2,0.9,0.5,1.3c0.4,0.4,0.8,0.7,1.3,0.8c0.9,0.2,1.7,0.4,2.6,0.4
			c0.2,0,0.3,0.1,0.4,0.3c0.2,0.3,0.2,0.7,0,1c-0.1,0.1-0.3,0.2-0.4,0.2c-1.2,0-2.4-0.1-3.6-0.2c-1-0.1-2-0.2-3-0.2
			c-1,0-2,0.1-3,0.2c-1,0.1-2,0.2-3,0.2c-0.2,0-0.3-0.1-0.4-0.2c-0.2-0.3-0.2-0.7,0-1c0.1-0.1,0.2-0.2,0.4-0.3
			c0.7-0.1,1.4-0.2,2.1-0.4c0.4-0.1,0.8-0.4,1.1-0.8c0.2-0.4,0.4-0.8,0.4-1.2c0-0.5,0.1-1.1,0.1-1.8v-6.9c0-1.6,0-2.8-0.1-3.7
			c0-0.7-0.2-1.4-0.5-2.1c-0.2-0.5-0.6-0.8-1.1-1c-0.7-0.2-1.4-0.3-2.1-0.3c-0.2,0-0.3-0.1-0.4-0.2c-0.1-0.1-0.1-0.3-0.1-0.5
			c0-0.2,0-0.3,0.1-0.5c0.1-0.2,0.2-0.3,0.4-0.2c0.6-0.1,1.5-0.1,2.6-0.2c1.2-0.1,2.3-0.3,3.4-0.6c0.4-0.1,0.7-0.1,1.1-0.1
			c0.3,0.1,0.4,0.4,0.4,0.8l-0.1,3c0,0.1,0,0.1,0,0.1s0.1,0,0.1-0.1c0.6-1.2,1.4-2.3,2.5-3.2c1.1-0.8,2.5-1.3,3.9-1.2
			c1.1-0.1,2.2,0.3,3,1c0.6,0.7,1,1.6,1,2.5c0,0.6-0.2,1.1-0.6,1.5c-0.5,0.5-1.1,0.7-1.8,0.7c-0.6,0.1-1.1-0.1-1.5-0.5
			c-0.3-0.3-0.4-0.7-0.4-1.1c0-0.4-0.1-0.7-0.3-1.1c-0.3-0.3-0.7-0.4-1.1-0.4c-0.6,0-1.2,0.2-1.6,0.6c-0.5,0.4-0.9,0.9-1.3,1.4
			c-0.3,0.5-0.6,1.1-0.8,1.7c-0.2,0.4-0.3,0.9-0.3,1.3L307.3,268.2z"/>
		<path class="st0" d="M333.5,252.4c-0.1,0.4-0.2,0.8-0.3,1.3c-0.1,0.5-0.1,1.1-0.1,1.6c0,0.6,0,1.2,0,1.9s0,1.1,0,1.5
			c0,0.1-0.1,0.2-0.2,0.2c-0.1,0.1-0.3,0.1-0.4,0.1c-0.1,0-0.3,0-0.4,0c-0.1,0-0.2-0.1-0.2-0.2c-0.2-1.4-0.8-2.7-1.7-3.9
			c-1-1-2.4-1.5-3.8-1.4c-1,0-2.1,0.3-2.9,0.9c-0.7,0.5-1.2,1.4-1.1,2.3c0,0.8,0.4,1.5,1,1.9c0.8,0.5,1.6,0.9,2.5,1.2l1.6,0.6
			c0.6,0.2,1.1,0.4,1.5,0.6c0.8,0.4,1.6,0.8,2.3,1.2c0.7,0.4,1.3,0.9,1.9,1.5c0.5,0.5,0.9,1.2,1.2,1.9c0.3,0.8,0.5,1.6,0.5,2.4
			c0,1.1-0.2,2.1-0.8,3c-0.5,0.8-1.2,1.5-2,2c-0.8,0.5-1.8,0.9-2.7,1.1c-1,0.2-2,0.3-3,0.3c-0.9,0-1.9-0.1-2.8-0.3
			c-0.9-0.2-1.8-0.4-2.7-0.8c-0.2-0.1-0.4,0-0.6,0.1c-0.2,0.2-0.4,0.4-0.4,0.7c0,0.1-0.1,0.2-0.2,0.2c-0.2,0-0.3,0-0.5,0
			c-0.1,0-0.3,0-0.4-0.1c-0.1,0-0.2-0.1-0.2-0.2c0-0.3,0-0.7,0.1-1c0.1-0.4,0.1-0.8,0.1-1.2c0-0.4,0-0.8-0.1-1.3
			c0-0.5-0.1-0.9-0.1-1.4s-0.1-0.8-0.1-1.2s0-0.6,0-0.8c0-0.1,0.1-0.2,0.2-0.3c0.1-0.1,0.3-0.1,0.4-0.1c0.1,0,0.3,0,0.5,0
			c0.1,0,0.2,0.1,0.3,0.3c0.2,0.8,0.5,1.6,0.9,2.4c0.3,0.7,0.8,1.3,1.3,1.8c0.5,0.5,1.2,0.9,1.9,1.1c0.9,0.3,1.8,0.4,2.7,0.4
			c1,0,2-0.3,2.8-1c0.7-0.7,1.1-1.7,1.1-2.7c0-0.9-0.4-1.8-1.1-2.4c-0.8-0.6-1.6-1.1-2.5-1.5l-1.4-0.6l-1.4-0.6l-2.1-0.9
			c-0.7-0.3-1.3-0.7-1.8-1.1c-0.5-0.5-1-1-1.3-1.7c-0.3-0.8-0.5-1.6-0.5-2.5c0-1,0.2-2,0.7-2.9c0.5-0.8,1.1-1.4,1.9-1.9
			c0.8-0.5,1.7-0.9,2.6-1.1c0.9-0.2,1.9-0.3,2.8-0.3c0.8,0,1.6,0.1,2.4,0.3c0.8,0.3,1.6,0.6,2.3,1.1c0.2,0.1,0.3,0.1,0.5,0
			c0.2-0.1,0.4-0.3,0.5-0.8c0-0.1,0.1-0.2,0.3-0.2c0.2,0,0.3,0,0.5,0c0.1,0,0.3,0.1,0.4,0.1C333.5,252.3,333.5,252.4,333.5,252.4z"
			/>
		<path class="st0" d="M360,267.4c0,0.9,0.1,1.7,0.3,2.6c0.2,0.6,0.5,1.1,1,1.5c0.5,0.4,1.1,0.7,1.7,0.8c0.8,0.2,1.6,0.3,2.4,0.3
			c0.2,0,0.4,0.1,0.5,0.3c0.1,0.2,0.1,0.4,0.1,0.6c0,0.2-0.1,0.4-0.2,0.5c-0.1,0.2-0.3,0.3-0.5,0.2c-1.7,0-3.2-0.1-4.4-0.2
			c-1.2-0.1-2.4-0.2-3.5-0.2c-1.2,0-2.4,0.1-3.6,0.2c-1.1,0.1-2.3,0.2-3.4,0.2c-0.2,0-0.4-0.1-0.5-0.3c-0.1-0.2-0.2-0.3-0.2-0.5
			c0-0.2,0.1-0.3,0.2-0.5c0.1-0.2,0.3-0.3,0.5-0.3c0.7-0.1,1.5-0.2,2.2-0.4c1.1-0.2,1.9-1.1,2-2.1c0.1-0.8,0.2-1.5,0.2-2.3v-17.8
			c0-0.7,0-1.4,0-2.1c0-0.7-0.1-1.3-0.3-1.9c-0.1-0.5-0.4-1.1-0.8-1.5c-0.3-0.4-0.8-0.7-1.4-0.8l-1.1-0.2c-0.4-0.1-0.7-0.1-1.1-0.2
			c-0.2,0-0.3-0.1-0.4-0.2c-0.2-0.3-0.2-0.7,0-1c0.1-0.2,0.3-0.2,0.4-0.2c1,0,1.9,0,2.9,0.1c1,0.1,2,0.2,3,0.1
			c1.9,0,3.5-0.1,4.7-0.2s2.5-0.1,3.6-0.1c1.3,0,2.5,0.1,3.7,0.4c1.2,0.2,2.3,0.7,3.2,1.4c0.9,0.7,1.7,1.5,2.2,2.5
			c0.6,1.2,0.9,2.5,0.9,3.9c0.1,1.5-0.3,3.1-1,4.4c-0.7,1.2-1.7,2.2-2.9,2.9c-1.3,0.8-2.8,1.3-4.3,1.6c-1.8,0.3-3.5,0.5-5.3,0.6
			c-0.2,0-0.5,0-0.7,0.1c-0.1,0.1-0.2,0.4-0.2,0.8L360,267.4z M360,257.1c0,0.2,0.1,0.4,0.2,0.5c0.3,0.1,0.5,0.1,0.8,0.1
			c1.3,0,2.6-0.1,3.9-0.4c0.9-0.2,1.8-0.6,2.5-1.2c0.7-0.6,1.1-1.3,1.4-2.2c0.3-1.1,0.4-2.2,0.4-3.3c0-2.5-0.5-4.3-1.4-5.3
			s-2.5-1.5-4.8-1.5c-0.8-0.1-1.7,0.1-2.5,0.5c-0.5,0.5-0.7,1.2-0.6,1.9L360,257.1z"/>
		<path class="st0" d="M384.4,268.2c0,0.8,0,1.5,0.1,2c0,0.5,0.2,0.9,0.5,1.3c0.4,0.4,0.8,0.7,1.3,0.8c0.9,0.2,1.7,0.4,2.6,0.4
			c0.2,0,0.3,0.1,0.4,0.3c0.1,0.1,0.1,0.3,0.1,0.5c0,0.2,0,0.3-0.1,0.5c-0.1,0.1-0.3,0.2-0.4,0.2c-1.2,0-2.4-0.1-3.6-0.2
			c-1-0.1-2-0.2-3-0.2c-1,0-2,0.1-3,0.2c-1,0.1-2,0.2-3,0.2c-0.2,0-0.3-0.1-0.4-0.2c-0.2-0.3-0.2-0.7,0-1c0.1-0.1,0.3-0.2,0.4-0.3
			c0.7-0.1,1.4-0.2,2.1-0.4c0.4-0.1,0.8-0.4,1.1-0.8c0.2-0.4,0.4-0.8,0.4-1.2c0-0.5,0.1-1.1,0.1-1.8v-6.9c0-1.6,0-2.8-0.1-3.7
			c0-0.7-0.2-1.4-0.5-2.1c-0.2-0.5-0.6-0.8-1.1-1c-0.7-0.2-1.4-0.3-2.1-0.3c-0.2,0-0.3-0.1-0.4-0.2c-0.1-0.1-0.1-0.3-0.1-0.5
			c0-0.2,0-0.3,0.1-0.5c0.1-0.2,0.2-0.3,0.4-0.2c0.6-0.1,1.5-0.1,2.6-0.2c1.2-0.1,2.3-0.3,3.5-0.6c0.4-0.1,0.7-0.1,1.1-0.1
			c0.3,0.1,0.4,0.4,0.4,0.8l-0.1,3c0,0.1,0,0.1,0,0.1s0.1,0,0.1-0.1c0.6-1.2,1.4-2.3,2.4-3.2c1.1-0.8,2.5-1.3,3.9-1.2
			c1.1-0.1,2.1,0.3,2.9,1c0.6,0.7,1,1.6,1,2.5c0,0.6-0.2,1.1-0.6,1.5c-0.5,0.5-1.1,0.7-1.8,0.7c-0.6,0.1-1.1-0.1-1.5-0.5
			c-0.3-0.3-0.4-0.7-0.4-1.1c0-0.4-0.1-0.7-0.3-1.1c-0.3-0.3-0.7-0.4-1.1-0.4c-0.6,0-1.2,0.2-1.6,0.6c-0.5,0.4-0.9,0.9-1.3,1.4
			c-0.3,0.5-0.6,1.1-0.8,1.7c-0.2,0.4-0.3,0.9-0.3,1.3L384.4,268.2z"/>
		<path class="st0" d="M417.7,262.5c0,1.7-0.2,3.5-0.8,5.1c-0.5,1.4-1.3,2.7-2.3,3.8c-1,1-2.2,1.8-3.6,2.3c-1.5,0.5-3.1,0.8-4.7,0.8
			c-1.4,0-2.8-0.2-4.1-0.7c-1.2-0.5-2.4-1.2-3.3-2.2c-1-1.1-1.7-2.3-2.2-3.7c-0.6-1.7-0.8-3.4-0.8-5.2c0-1.5,0.3-3,0.8-4.4
			c0.5-1.3,1.3-2.5,2.3-3.4c1-1,2.2-1.7,3.5-2.2c1.4-0.6,2.9-0.8,4.5-0.8c1.5,0,2.9,0.2,4.3,0.7c1.3,0.4,2.4,1.2,3.4,2.1
			c1,0.9,1.7,2.1,2.2,3.3C417.5,259.3,417.7,260.9,417.7,262.5z M412.7,263c0-1.2-0.1-2.3-0.2-3.5c-0.1-1.1-0.4-2.1-0.9-3
			c-0.4-0.8-1-1.6-1.7-2.1c-0.8-0.6-1.8-0.8-2.8-0.8c-1.1,0-2.2,0.2-3.1,0.8c-0.8,0.6-1.4,1.3-1.9,2.2c-0.5,1-0.8,2-1,3.1
			c-0.2,1.2-0.3,2.4-0.3,3.6c0,1.1,0.1,2.2,0.2,3.3c0.1,1.1,0.4,2.1,0.9,3.1c0.4,0.9,1.1,1.7,1.8,2.3c0.9,0.6,1.9,0.9,3,0.9
			c1.1,0,2.1-0.3,3-0.9c0.8-0.6,1.4-1.3,1.8-2.2c0.4-1,0.7-2,0.9-3.1C412.7,265.3,412.7,264.2,412.7,263L412.7,263z"/>
		<path class="st0" d="M439.4,255.5c0.4,0.6,0.8,1.4,1,2.1c0.2,0.7,0.3,1.5,0.4,2.2c0,1.3-0.2,2.5-0.8,3.7c-0.5,1-1.2,2-2.1,2.7
			c-0.9,0.7-2,1.3-3.1,1.7c-1.2,0.4-2.5,0.6-3.8,0.6c-0.4,0-0.9,0-1.5,0s-1.2,0.1-1.8,0.2c-0.5,0.1-1,0.2-1.5,0.5
			c-0.4,0.1-0.6,0.5-0.6,0.9c0,0.3,0.2,0.6,0.5,0.7c0.4,0.2,0.8,0.4,1.2,0.5c0.5,0.1,0.9,0.2,1.4,0.2c0.5,0,0.8,0.1,1.1,0.1
			c2.3,0.2,4.3,0.4,6.1,0.6c1.6,0.2,3.1,0.6,4.6,1.2c2.5,0.9,4.1,3.4,3.9,6c0,1.3-0.3,2.6-0.8,3.8c-0.6,1.2-1.4,2.2-2.4,3
			c-1.2,0.9-2.6,1.6-4,2c-1.8,0.5-3.6,0.8-5.4,0.7c-1.6,0-3.2-0.1-4.7-0.5c-1.3-0.3-2.5-0.7-3.7-1.4c-1-0.6-1.8-1.4-2.4-2.4
			c-0.6-1.1-0.9-2.3-0.8-3.5c0-0.7,0.1-1.5,0.3-2.2c0.2-0.6,0.5-1.2,0.9-1.7c0.7-1,1.7-1.8,2.8-2.3c-0.7-0.2-1.4-0.6-2-1.1
			c-0.6-0.5-1-1.4-0.9-2.2c0-0.7,0.2-1.3,0.5-1.9c0.3-0.5,0.8-0.9,1.3-1.2c0.6-0.3,1.2-0.6,1.9-0.7c0.7-0.1,1.3-0.2,2-0.3l0,0v0
			c-1.5-0.5-2.8-1.4-3.8-2.6c-1-1.3-1.5-2.9-1.4-4.5c0-1.2,0.2-2.4,0.7-3.5c0.5-1,1.1-2,2-2.7c0.9-0.8,2-1.4,3.2-1.7
			c1.3-0.4,2.7-0.6,4.1-0.6c1.4-0.1,2.7,0.2,4,0.7c1,0.5,1.9,1.1,2.7,1.9c0.6-0.6,1.4-1.1,2.1-1.5c0.9-0.4,1.8-0.6,2.8-0.6
			c0.4,0,0.8,0,1.2,0.1c0.4,0.1,0.8,0.2,1.2,0.4c0.3,0.2,0.7,0.4,0.9,0.7c0.3,0.3,0.4,0.7,0.4,1.1c0,0.5-0.1,1-0.4,1.4
			c-0.4,0.5-1,0.7-1.7,0.6c-0.4,0.1-0.9-0.1-1.2-0.4c-0.2-0.2-0.3-0.5-0.4-0.8c-0.1-0.3-0.2-0.5-0.3-0.8c-0.1-0.2-0.4-0.4-0.9-0.4
			c-0.5,0-1,0.1-1.5,0.4C440,254.7,439.7,255.1,439.4,255.5z M426.5,275.5c-0.6,0.5-1,1.2-1.3,1.9c-0.3,0.8-0.5,1.6-0.5,2.5
			c0,1.1,0.2,2.1,0.7,3.1c0.5,0.9,1.1,1.6,1.9,2.2c0.8,0.6,1.8,1,2.7,1.3c1,0.3,2.1,0.4,3.2,0.4c1.8,0,3.5-0.6,4.9-1.8
			c0.6-0.5,1.1-1.2,1.5-1.9c0.4-0.7,0.6-1.6,0.6-2.4c0-1-0.4-1.9-1.1-2.6c-0.8-0.7-1.8-1.3-2.9-1.6c-1.4-0.4-2.9-0.7-4.4-0.8
			C430.3,275.6,428.5,275.5,426.5,275.5z M431.1,266.8c1.4,0.1,2.7-0.5,3.5-1.6c0.8-1.4,1.2-3.1,1.1-4.7c0-1-0.1-1.9-0.2-2.9
			c-0.1-0.8-0.3-1.5-0.6-2.2c-0.3-0.6-0.7-1.1-1.3-1.4c-0.6-0.3-1.3-0.5-2-0.5c-0.9,0-1.7,0.2-2.5,0.6c-0.6,0.4-1.1,1-1.5,1.6
			c-0.4,0.7-0.6,1.5-0.7,2.3c-0.1,0.8-0.2,1.6-0.2,2.4c-0.1,1.7,0.3,3.3,1.1,4.8C428.6,266.2,429.8,266.8,431.1,266.8L431.1,266.8z"
			/>
		<path class="st0" d="M456.1,268.2c0,0.8,0,1.5,0.1,2c0,0.5,0.2,0.9,0.5,1.3c0.4,0.4,0.8,0.7,1.3,0.8c0.9,0.2,1.7,0.4,2.6,0.4
			c0.2,0,0.3,0.1,0.4,0.3c0.2,0.3,0.2,0.7,0,1c-0.1,0.1-0.3,0.2-0.4,0.2c-1.2,0-2.4-0.1-3.6-0.2c-1-0.1-2-0.2-3-0.2
			c-1,0-2,0.1-3,0.2c-1,0.1-2,0.2-3,0.2c-0.2,0-0.3-0.1-0.4-0.2c-0.2-0.3-0.2-0.7,0-1c0.1-0.1,0.2-0.2,0.4-0.3
			c0.7-0.1,1.4-0.2,2.1-0.4c0.4-0.1,0.8-0.4,1.1-0.8c0.2-0.4,0.4-0.8,0.4-1.2c0-0.5,0.1-1.1,0.1-1.8v-6.9c0-1.6,0-2.8-0.1-3.7
			c0-0.7-0.2-1.4-0.5-2.1c-0.2-0.5-0.6-0.8-1.1-1c-0.7-0.2-1.4-0.3-2.1-0.3c-0.2,0-0.3-0.1-0.4-0.2c-0.1-0.1-0.1-0.3-0.1-0.5
			c0-0.2,0-0.3,0.1-0.5c0.1-0.2,0.2-0.3,0.4-0.2c0.6-0.1,1.5-0.1,2.6-0.2c1.2-0.1,2.3-0.3,3.4-0.6c0.4-0.1,0.7-0.1,1.1-0.1
			c0.3,0.1,0.4,0.4,0.4,0.8l-0.1,3c0,0.1,0,0.1,0,0.1s0.1,0,0.1-0.1c0.6-1.2,1.4-2.3,2.5-3.2c1.1-0.8,2.5-1.3,3.9-1.2
			c1.1-0.1,2.2,0.3,3,1c0.6,0.7,1,1.6,1,2.5c0,0.6-0.2,1.1-0.6,1.5c-0.5,0.5-1.1,0.7-1.8,0.7c-0.6,0.1-1.1-0.1-1.5-0.5
			c-0.3-0.3-0.4-0.7-0.4-1.1c0-0.4-0.1-0.7-0.3-1.1c-0.3-0.3-0.7-0.4-1.1-0.4c-0.6,0-1.2,0.2-1.6,0.6c-0.5,0.4-0.9,0.9-1.3,1.4
			c-0.3,0.5-0.6,1.1-0.8,1.7c-0.2,0.4-0.3,0.9-0.3,1.3L456.1,268.2z"/>
		<path class="st0" d="M484.6,268.8c0,0.8,0.1,1.6,0.3,2.3c0.2,0.5,0.7,0.7,1.2,0.7c0.3,0,0.6,0,0.9-0.1c0.3-0.1,0.7-0.3,1-0.5
			c0.1-0.1,0.2-0.1,0.3,0c0.1,0.1,0.2,0.2,0.3,0.3c0.1,0.1,0.1,0.2,0.2,0.4c0,0.1,0,0.3-0.1,0.4c-1,1.4-2.7,2.2-4.4,2.2
			c-0.8,0-1.7-0.2-2.4-0.7c-0.6-0.5-1.1-1-1.5-1.7c-0.1-0.2-0.2-0.2-0.3,0c-0.9,0.8-1.8,1.4-2.9,1.8c-1.3,0.5-2.7,0.8-4.1,0.7
			c-1.5,0.1-3-0.4-4.2-1.5c-1-1.1-1.6-2.6-1.5-4.1c0-2.2,1.2-4.3,3.2-5.3c2.1-1.2,5.2-1.8,9.3-1.8c0.1,0,0.1-0.1,0.1-0.2
			c0-0.4,0.1-0.7,0-1.1v-1.3c0-0.7-0.1-1.5-0.2-2.2c-0.1-0.6-0.3-1.3-0.6-1.8c-0.3-0.5-0.7-0.9-1.3-1.2c-0.6-0.3-1.3-0.5-2-0.4
			c-1,0-2,0.2-2.9,0.7c-0.7,0.3-1.1,1-1.1,1.8c0,0.4,0.1,0.7,0.3,1c0.2,0.3,0.3,0.6,0.3,1c0,0.5-0.3,1-0.7,1.3
			c-0.4,0.4-1,0.6-1.6,0.6c-0.7,0.1-1.4-0.2-1.8-0.7c-0.4-0.5-0.6-1.1-0.5-1.7c0-0.8,0.2-1.6,0.7-2.3c0.5-0.7,1.1-1.4,1.8-1.8
			c0.8-0.5,1.7-0.9,2.7-1.2c1-0.3,2.1-0.5,3.2-0.4c2.1-0.1,4.3,0.5,6,1.8c1.5,1.2,2.2,3.1,2.2,5.8L484.6,268.8z M480.2,264.1
			c0-0.2,0-0.4,0-0.6c0-0.1-0.1-0.1-0.2-0.1c-2,0.1-4,0.6-5.8,1.6c-1.9,1.2-2.5,3.7-1.2,5.7c0,0,0,0.1,0.1,0.1
			c0.6,0.7,1.5,1.1,2.4,1c0.8,0,1.6-0.2,2.3-0.4c0.8-0.3,1.5-0.7,2.2-1.2c0.2-0.2,0.4-0.5,0.4-0.8V264.1z"/>
		<path class="st0" d="M498.3,268.2c0,0.8,0,1.5,0,2c0,0.5,0.1,0.9,0.3,1.3c0.2,0.4,0.5,0.6,0.9,0.8c0.6,0.2,1.2,0.4,1.8,0.4
			c0.2,0,0.3,0.1,0.4,0.3c0.2,0.3,0.2,0.7,0,1c-0.1,0.1-0.3,0.2-0.4,0.2c-0.8,0-1.6-0.1-2.3-0.2c-0.9-0.1-1.9-0.2-2.8-0.2
			c-1,0-2,0.1-2.9,0.2c-0.9,0.1-1.7,0.2-2.6,0.2c-0.2,0-0.3-0.1-0.4-0.2c-0.2-0.3-0.2-0.7,0-1c0.1-0.1,0.3-0.2,0.4-0.3
			c0.6-0.1,1.2-0.2,1.8-0.4c0.4-0.2,0.7-0.4,0.9-0.8c0.2-0.4,0.3-0.8,0.3-1.2c0-0.5,0-1.1,0-1.8v-7c0-1.5,0-2.7,0-3.6
			c0-0.7-0.1-1.4-0.3-2.1c-0.1-0.4-0.5-0.8-0.9-1c-0.6-0.2-1.1-0.3-1.7-0.3c-0.2,0-0.3-0.1-0.4-0.2c-0.1-0.1-0.2-0.3-0.2-0.4
			c0-0.2,0-0.3,0.1-0.4c0.1-0.1,0.2-0.2,0.4-0.2c0.5-0.1,1.3-0.2,2.4-0.4s2.1-0.4,3.4-0.8c0.1-0.1,0.2-0.1,0.4-0.1h0.4
			c0.3,0,0.6,0.1,0.8,0.4c0.2,0.2,0.3,0.6,0.3,0.9l-0.1,2.3c0,0.2,0.1,0.2,0.2,0.1s0.4-0.6,0.8-1c0.4-0.5,0.9-0.9,1.4-1.3
			c0.7-0.5,1.4-0.9,2.1-1.2c0.9-0.4,1.9-0.5,2.9-0.5c1.6-0.1,3.3,0.3,4.6,1.2c1.2,0.9,2.1,2.1,2.7,3.5c0.2-0.5,0.5-0.9,0.9-1.3
			c0.5-0.6,1.1-1.1,1.7-1.5c0.7-0.5,1.5-0.9,2.4-1.3c0.9-0.4,1.9-0.5,2.9-0.5c1.3,0,2.5,0.2,3.7,0.7c0.9,0.4,1.7,1.1,2.2,1.9
			c0.6,0.9,0.9,1.8,1.1,2.8c0.2,1.2,0.3,2.4,0.3,3.5v7.6c0,0.8,0,1.5,0,2c0,0.5,0.1,0.9,0.3,1.3c0.2,0.3,0.4,0.6,0.8,0.8
			c0.5,0.2,1,0.4,1.5,0.4c0.2,0,0.3,0.1,0.4,0.3c0.2,0.3,0.2,0.7,0,1c-0.1,0.1-0.3,0.2-0.4,0.2c-0.7,0-1.3-0.1-2-0.2
			c-0.9-0.1-1.8-0.2-2.8-0.2c-1,0-2,0-2.9,0.2c-0.8,0.1-1.7,0.2-2.5,0.2c-0.2,0-0.3-0.1-0.4-0.2c-0.2-0.3-0.2-0.7,0-1
			c0.1-0.1,0.2-0.2,0.4-0.3c0.6,0,1.2-0.2,1.7-0.4c0.4-0.2,0.7-0.4,0.9-0.8c0.2-0.4,0.3-0.8,0.3-1.2c0-0.5,0-1.1,0-1.8v-6.1
			c0-0.9,0-1.8-0.1-2.7c0-0.9-0.2-1.7-0.5-2.5c-0.2-0.7-0.7-1.4-1.2-1.9c-0.6-0.5-1.5-0.8-2.3-0.7c-0.9,0-1.7,0.2-2.5,0.6
			c-0.8,0.4-1.4,0.9-2,1.6c-0.6,0.6-1,1.3-1.4,2.1c-0.3,0.7-0.5,1.4-0.5,2.2v7.2c0,0.9,0,1.7,0,2.2c0,0.5,0.1,0.9,0.3,1.3
			c0.2,0.3,0.4,0.6,0.8,0.7c0.5,0.2,1,0.3,1.5,0.4c0.2,0,0.3,0.1,0.4,0.3c0.1,0.1,0.1,0.3,0.1,0.5c0,0.2,0,0.3-0.1,0.5
			c-0.1,0.1-0.3,0.2-0.4,0.2c-0.7,0-1.3-0.1-2-0.2c-0.9-0.1-1.8-0.2-2.8-0.2c-1,0-2,0-2.9,0.2c-0.8,0.1-1.6,0.2-2.4,0.2
			c-0.2,0-0.3-0.1-0.4-0.2c-0.2-0.3-0.2-0.7,0-1c0.1-0.1,0.3-0.2,0.4-0.3c0.6-0.1,1.1-0.2,1.6-0.4c0.4-0.1,0.7-0.4,0.9-0.7
			c0.2-0.4,0.3-0.8,0.3-1.2c0-0.5,0-1.2,0-2v-6.1c0-0.9,0-1.8-0.1-2.7c-0.1-0.9-0.2-1.7-0.5-2.5c-0.3-0.7-0.7-1.4-1.3-1.9
			c-0.7-0.5-1.5-0.8-2.4-0.7c-1,0-1.9,0.2-2.8,0.6c-0.7,0.4-1.4,0.9-1.9,1.6c-0.5,0.6-0.9,1.3-1.1,2.1c-0.2,0.7-0.3,1.5-0.4,2.3
			L498.3,268.2z"/>
		<path class="st0" d="M254.9,12.6c0.8-1.4,1.7-2.7,2.6-4c3.4-4.2,7.2-6.2,11.5-6.2V0h-78.4v2.4c4.3,0,8.2,2.1,11.5,6.2
			c0.9,1.3,1.8,2.6,2.6,4c3.9,6.9,5.8,15.5,5.8,25.6V168c0,10.1-1.9,18.6-5.8,25.6s-8.6,10.4-14.1,10.4v2.4H269V204
			c-5.5,0-10.2-3.5-14.1-10.4c-4-6.9-5.9-15.5-5.8-25.6V38.2C249.1,28.1,251,19.5,254.9,12.6z"/>
		<path class="st0" d="M321.8,91.9c0,5.5-3.5,10.2-10.4,14.1c-4.2,2.5-8.9,3.8-13.8,3.8h-29.5c-3,2.5-6.2,4.8-9.5,6.8h39.2
			c4.8,0,9.5,1.2,13.7,3.6c6.9,4,10.4,8.7,10.4,14.3h2.4V91.9H321.8z"/>
		<path class="st0" d="M329.9,0h-50.8v2.5c26.1,1.2,47,22.1,48.2,48.2h2.5V0z"/>
		<path class="st0" d="M404.2,12.6c4-6.8,8.8-10.3,14.3-10.3V0H340v2.4c5.6,0,10.3,3.4,14.3,10.3c4,6.8,5.9,15.4,5.8,25.6V168
			c0,10.1-2,18.6-6,25.6S345.4,204,340,204v2.4h78.5V204c-5.4,0-10.2-3.5-14.1-10.4c-4-6.9-5.9-15.5-5.9-25.6V38.2
			C398.5,28.1,400.4,19.5,404.2,12.6z"/>
		<path class="st0" d="M465.3,0h-36.6v2.4c35.1,0,63.6,28.5,63.6,63.6c0,35.1-28.5,63.6-63.6,63.6v2.4h36.6
			c36.4-1.1,65.1-31.5,64-68C528.3,29.1,500.2,1.1,465.3,0z"/>
		<path class="st0" d="M152.2,12.6l0.4,0.8c2.2,4.2,3.3,8.8,3.2,13.5v32.5c2.3,0.9,4.6,1.9,6.8,3v-36c0-4.8,1.3-9.6,3.7-13.7
			c4-6.9,8.7-10.3,14.1-10.3V0h-42.4v2.4C143.7,2.4,148.4,5.8,152.2,12.6z"/>
		<path class="st0" d="M143.9,197.1c-38.9,7.5-76.6-17.9-84.1-56.8c-0.9-4.5-1.3-9.1-1.3-13.8V38.2c0-10.1,2-18.6,5.9-25.6
			S73,2.3,78.5,2.4V0H0v2.4c5.5,0,10.3,3.4,14.3,10.3s5.9,15.4,5.8,25.6v88.3c0,1.6,0.1,3.2,0.1,4.7c2.1,36.2,27.7,66.7,63,75.1
			h37.7C129,204.5,136.7,201.3,143.9,197.1z"/>
		<path class="st0" d="M120.8,206.4H83.2C95.6,209.3,108.5,209.3,120.8,206.4z"/>
	</g>
</g>
</svg>
